<?xml version="1.0" encoding="UTF-8" standalone="no"?>
<!-- Created with Inkscape (http://www.inkscape.org/) -->

<svg
   xmlns:dc="http://purl.org/dc/elements/1.1/"
   xmlns:cc="http://creativecommons.org/ns#"
   xmlns:rdf="http://www.w3.org/1999/02/22-rdf-syntax-ns#"
   xmlns:svg="http://www.w3.org/2000/svg"
   xmlns="http://www.w3.org/2000/svg"
   xmlns:sodipodi="http://sodipodi.sourceforge.net/DTD/sodipodi-0.dtd"
   xmlns:inkscape="http://www.inkscape.org/namespaces/inkscape"
   width="132.48318mm"
   height="105.38681mm"
   viewBox="0 0 469.42861 373.41783"
   id="svg2"
   version="1.1"
   inkscape:version="0.91 r13725"
   sodipodi:docname="Entete.svg">
  <defs
     id="defs4" />
  <sodipodi:namedview
     id="base"
     pagecolor="#ffffff"
     bordercolor="#666666"
     borderopacity="1.0"
     inkscape:pageopacity="0.0"
     inkscape:pageshadow="2"
     inkscape:zoom="1.979899"
     inkscape:cx="313.08288"
     inkscape:cy="153.51746"
     inkscape:document-units="px"
     inkscape:current-layer="layer1"
     showgrid="false"
     inkscape:window-width="1855"
     inkscape:window-height="951"
     inkscape:window-x="65"
     inkscape:window-y="24"
     inkscape:window-maximized="1"
     fit-margin-top="0"
     fit-margin-left="0"
     fit-margin-right="0"
     fit-margin-bottom="0" />
  <metadata
     id="metadata7">
    <rdf:RDF>
      <cc:Work
         rdf:about="">
        <dc:format>image/svg+xml</dc:format>
        <dc:type
           rdf:resource="http://purl.org/dc/dcmitype/StillImage" />
        <dc:title></dc:title>
      </cc:Work>
    </rdf:RDF>
  </metadata>
  <g
     inkscape:label="Layer 1"
     inkscape:groupmode="layer"
     id="layer1"
     transform="translate(-14.356773,-14.047302)">
    <g
       id="g3406"
       transform="matrix(0.1766097,0,0,0.1766097,187.36254,183.94409)">
      <path
         style="fill:#c0002a"
         d="m 84.9169,1146.3636 c -34.6705,-8.9557 -61.7214,-16.9392 -96.0107,-28.3353 -35.83691,-11.9105 -66.05243,-23.1143 -96.5,-35.7818 -22.64092,-9.4197 -67.81401,-29.6831 -68.44379,-30.7021 -0.20345,-0.3292 40.42567,-12.4763 90.28694,-26.9934 l 90.65685,-26.39493 219.9034,-24.227 219.9034,-24.2271 6.3555,2.9741 6.3554,2.9741 141.7412,-18.1724 c 343.6086,-44.0537 431.347,-54.3908 499.0065,-58.7916 l 11.2654,-0.7328 -13.7654,-7.821 c -31.9932,-18.1774 -80.5973,-40.7618 -123.0704,-57.1859 l -18.305,-7.0784 -173.6691,23.1555 -173.669,23.1556 -39.526,-13.981 c -55.579,-19.6592 -108.2397,-37.8018 -130.5259,-44.9685 -17.6903,-5.6888 -19.787,-6.1408 -30.4166,-6.5564 -12.2451,-0.4787 -55.109,0.8316 -111.5834,3.411 -31.04,1.4177 -49.4257,1.4709 -162.5,0.4694 -70.125,-0.621 -200.54825,-1.1226 -289.82946,-1.1147 l -162.32945,0.014 0.654,-2.9777 c 0.35971,-1.6377 3.915,-19.0752 7.90066,-38.75 l 7.24666,-35.7723 4.42879,-0.2998 c 18.30232,-1.239 785.4233,-42.039 785.6755,-41.7868 0.1781,0.178 4.6068,19.8318 9.8418,43.6751 5.2349,23.8432 9.6065,43.4075 9.7147,43.4761 0.1083,0.069 44.2968,-3.1314 98.1968,-7.1113 58.798,-4.3415 123.2013,-9.7445 161,-13.5067 34.65,-3.4488 63.336,-6.5562 63.7467,-6.9053 0.4107,-0.3491 -34.9143,-18.1933 -78.5,-39.6537 l -79.2467,-39.019 -0.2838,-10.6843 c -0.1628,-6.128 0.113,-10.6843 0.6467,-10.6843 0.5118,0 49.4645,21.2161 108.7838,47.1468 l 107.8533,47.1468 32.121,2.2894 c 17.6666,1.2592 34.0857,2.4306 36.487,2.6032 l 4.3659,0.3138 7.513,29.399 7.5131,29.3991 32,14.8956 c 17.6,8.1926 52.475,24.9317 77.5,37.1981 25.025,12.2663 53.9195,26.2769 64.2099,31.1345 16.1334,7.6159 18.7836,9.1861 19.2447,11.4029 0.9546,4.5885 11.5697,79.38 11.3035,79.6416 -0.3236,0.3182 -76.7923,8.5495 -110.2581,11.8685 -38.6388,3.8321 -54.7454,5.2445 -114,9.9966 -30.25,2.4261 -96.7855,7.9072 -147.8567,12.1803 l -92.8567,7.76933 -61.1433,-8.17063 -61.1433,-8.1706 -41.445,-1.4939 c -22.7947,-0.8216 -41.5229,-1.3941 -41.6183,-1.2721 -0.095,0.1219 7.2306,12.746 16.2798,28.05353 9.0493,15.3075 16.1989,28.0861 15.8881,28.3969 -1.7284,1.7284 -70.8829,16.6126 -154.6046,33.2756 -97.4582,19.3971 -114.3733,23.1025 -156.5,34.283 -20.6407,5.4781 -30.821,8.9832 -72.7311,25.0412 -26.8021,10.2693 -49.0771,18.6374 -49.5,18.5958 -0.4229,-0.042 -11.1141,-2.7479 -23.7582,-6.0141 z M -217.0938,623.34727 c -85.59934,-4.3274 -113.80967,-6.1844 -136.5,-8.9853 -9.075,-1.1203 -69.6,-9.676 -134.5,-19.0128 -136.05996,-19.5741 -198.91925,-28.4938 -233.5,-33.1335 l -24.5,-3.2871 -6.78926,-9.9876 c -9.05438,-13.3198 -21.0701,-32.4845 -20.59322,-32.8456 0.21036,-0.1593 21.30748,0.4954 46.88248,1.4549 77.99225,2.9259 145.23869,4.8545 241,6.9117 143.53683,3.0835 280.48423,6.178 280.66378,6.3419 0.30454,0.278 22.33622,91.6867 22.33622,92.6722 0,1.1131 -10.72674,1.073 -34.5,-0.1288 z m 445.7519,-40.2851 c -61.7365,-22.1494 -112.4823,-40.5059 -112.7686,-40.7921 -0.2862,-0.2862 13.3255,-0.8304 30.2482,-1.2092 84.1299,-1.8834 165.6551,-4.2755 242.2685,-7.1089 88.2461,-3.2635 186.1547,-5.7531 187.1113,-4.7578 0.4013,0.4176 5.6921,9.3092 11.7573,19.7592 10.4809,18.0579 10.9187,19.0357 8.8295,19.7201 -3.6149,1.1842 -252.1694,54.785 -253.7454,54.7202 -0.799,-0.033 -51.9644,-18.1821 -113.7008,-40.3315 z M 87.9062,533.90797 c -12.9715,-3.1449 -80.933,-17.51 -93.54591,-19.7729 -3.89701,-0.6991 -36.60193,-0.2465 -110,1.5225 l -104.45409,2.5174 -78.31735,-23.1108 c -77.46857,-22.8603 -78.2543,-23.118 -72.5,-23.7753 5.88421,-0.6722 55.84662,-2.1283 130.81735,-3.8126 72.80245,-1.6356 170.79361,-2.2935 227.82561,-1.5297 l 55.63249,0.745 6.1496,11.1309 c 10.8722,19.6791 19.2881,33.0261 23.4931,37.258 3.3877,3.4094 10.9891,8.7366 30.0567,21.0641 2.9254,1.8913 0.2238,1.4927 -15.1575,-2.2366 z m 419,-47.5097 c -8.25,-0.9995 -81.8827,-9.2606 -163.6283,-18.3582 -155.137,-17.2653 -214.425,-24.0426 -377.3717,-43.138 l -98,-11.4845 -80.30743,-26.7321 c -44.16909,-14.7026 -79.70509,-26.8586 -78.9689,-27.0133 1.71031,-0.3592 229.53417,17.8372 273.27633,21.8268 53.1071,4.8437 124.5978,12.8118 202,22.5142 32.2493,4.0425 158.2784,20.2434 163.5,21.0178 3.6542,0.5419 3.8176,0.6163 -32,-14.5568 -21.1374,-8.9543 -52.7151,-23.5339 -94.25,-43.516 l -28.75,-13.8313 0,-8.8367 c 0,-4.8603 0.2515,-8.8368 0.5589,-8.8368 0.3075,0 19.32,7.608 42.25,16.9066 53.5397,21.7114 102.0929,41.1108 149.1911,59.6089 20.625,8.1007 43.8,17.3305 51.5,20.5109 12.3453,5.099 15.7138,6.0362 28.5,7.9294 17.5435,2.5977 49.7949,8.9096 52.3347,10.2424 1.0091,0.5296 3.666,4.7792 5.9041,9.4437 3.2956,6.8681 4.1593,9.8816 4.5421,15.8462 0.6125,9.544 -0.127,12.5488 -3.05,12.3929 -1.227,-0.065 -8.9809,-0.9367 -17.2309,-1.9361 z m -1076,-154.0237 c -17.82932,-1.0721 -77.95239,-3.6973 -112.63236,-4.9179 -15.7478,-0.5543 -65.23874,-1.4702 -109.97987,-2.0354 -44.74112,-0.5652 -81.72648,-1.4066 -82.18967,-1.8698 -0.46319,-0.4632 -5.06633,-11.2709 -10.22921,-24.0172 -6.25949,-15.4537 -8.9842,-23.3078 -8.17796,-23.5733 3.39471,-1.1182 76.14813,-5.163 107.70907,-5.9883 12.375,-0.3236 44.775,-1.2486 72,-2.0557 90.47539,-2.6819 140.97984,-3.4372 194,-2.9011 28.875,0.2919 73.09516,0.1722 98.26701,-0.2659 l 45.76702,-0.7966 -17.15029,-17.8025 c -11.82534,-12.275 -16.41032,-17.6348 -14.76702,-17.2624 3.45668,0.7833 185.43537,24.2849 232.88328,30.0757 33.61053,4.102 115.78871,16.6074 168,25.5653 32.9342,5.6505 89.759,16.944 98.25,19.5264 1.4862,0.4521 1.75,1.8033 1.75,8.9649 0,6.6927 -0.2986,8.4326 -1.4474,8.4326 -0.796,0 -31.2835,-3.8233 -67.75,-8.4962 -89.42302,-11.459 -133.83603,-16.6734 -187.3026,-21.9909 -60.85195,-6.052 -74.87129,-7.1844 -111,-8.9654 -37.20132,-1.834 -84.70286,-3.678 -85.07811,-3.3027 -0.14845,0.1484 3.04716,5.3051 7.10136,11.4592 l 7.37127,11.1893 -4.19726,0.5688 c -35.01676,4.7459 -53.96724,7.7222 -83.69726,13.1455 -19.525,3.5617 -51.25,9.1555 -70.5,12.4308 -37.4466,6.3713 -39.61666,6.5295 -67,4.8828 z m 537.5,-98.5093 c -5.775,-1.2844 -30.3,-6.37 -54.5,-11.3013 -85.67244,-17.4577 -176.57075,-31.2514 -274,-41.579 -13.2,-1.3993 -25.14963,-2.919 -26.55472,-3.3773 -2.76906,-0.9031 -20.22972,-14.2032 -19.54507,-14.8878 1.01202,-1.0121 89.87883,7.2254 132.59979,12.2913 50.35783,5.9714 125.59969,17.4263 164.45585,25.0368 21.68234,4.2468 80.8946,17.2079 83.99003,18.3848 1.79621,0.6829 2.44155,2.187 3.50917,8.1787 0.71951,4.0381 1.52211,7.9044 1.78356,8.5919 0.56422,1.4836 1.35353,1.5736 -11.73861,-1.3381 z m -507,-126.4949 c -83.19461,-12.0341 -205.14958,-27.7088 -256,-32.9034 -34.03503,-3.4768 -106.31547,-10.0646 -138.76983,-12.6476 -12.24841,-0.9749 -22.74387,-2.0654 -23.32324,-2.4235 -0.57937,-0.3581 -2.36976,-7.1291 -3.97865,-15.0468 l -2.92523,-14.3957 3.74847,-8.28559 3.74848,-8.28559 6,0.56707 c 33.3628,3.15316 79.9912,7.99156 97,10.06521 37.31864,4.54977 55.44241,7.49548 138,22.4296 26.95,4.875 64.525,11.6256 83.5,15.0012 18.975,3.3756 52.55148,9.4834 74.61441,13.5728 22.06293,4.0894 40.42984,7.4353 40.81536,7.4353 0.59918,0 14.57023,28.3509 14.57023,29.5668 0,0.6752 -1.42232,0.4964 -37,-4.6498 z M 782.1724,24.36384 c -8.341,-20.60665 -96.7662,-245.49664 -96.7662,-246.10355 0,-0.47872 5.2715,-0.74361 11.7144,-0.58866 l 11.7143,0.28174 36.6371,92.76811 c 20.1504,51.02246 36.8164,92.94289 37.0356,93.1565 0.2193,0.21361 12.5009,-30.28204 27.2926,-67.76811 14.7917,-37.48608 31.3852,-79.519 36.8743,-93.4065 l 9.9803,-25.25 11.9827,0 c 10.9974,0 11.9283,0.1439 11.3213,1.75 -0.3637,0.9625 -22.0289,55.86928 -48.1448,122.01507 -26.1159,66.14579 -47.8405,121.2305 -48.277,122.41047 -0.5844,1.5796 -0.9442,1.77342 -1.3646,0.73493 z M 1231.4062,12.9373 c -8.4986,-1.73651 -13.4081,-3.55451 -22.8146,-8.44827 -9.9074,-5.15441 -19.7388,-13.33286 -26.6583,-22.1762 -6.7805,-8.66584 -10.9215,-17.01722 -13.5213,-27.26942 -1.9298,-7.61038 -2.0058,-11.12327 -2.0058,-92.75 l 0,-84.84004 11,0 11,0 0.015,82.25 c 0.016,89.39182 -0.039,88.41138 5.6528,100.57376 1.7949,3.83536 5.4416,8.4681 11.2444,14.28479 6.7127,6.7287 10.2258,9.38251 16.088,12.15285 13.7281,6.48755 28.8367,8.30727 43.5,5.23925 3.85,-0.80555 10.8098,-3.34273 15.4662,-5.63818 6.5176,-3.21302 10.2,-5.92142 16,-11.76802 4.4326,-4.46831 8.6902,-9.91254 10.343,-13.22587 5.8114,-11.64951 5.666,-9.08698 5.6789,-100.11858 l 0.012,-83.75 11.5266,0 11.5265,0 -0.2765,86.75 -0.2766,86.75 -2.8078,8 c -3.8668,11.01764 -9.6424,20.38877 -17.9668,29.15226 -12.1086,12.74723 -27.398,21.36529 -43.9332,24.76362 -9.363,1.92429 -29.5345,1.95967 -38.7922,0.068 z M 455.6875,9.23436 c 0.7337,-1.80454 22.683,-57.36956 48.7763,-123.47782 26.0933,-66.10825 47.7108,-119.88325 48.0388,-119.5 0.447,0.52223 93.0179,235.08442 96.472,244.44683 0.5919,1.60462 -0.3394,1.74988 -11.2114,1.74852 l -11.857,-0.001 -17.0731,-43.24852 -17.0731,-43.24852 -38.865,-0.26192 c -25.9462,-0.17485 -39.2111,0.0842 -39.9063,0.77938 -0.5727,0.57271 -8.5389,20.04058 -17.7028,43.26192 l -16.6615,42.22062 -12.1355,0.28099 -12.1354,0.28099 1.334,-3.28099 z M 583.0883,-96.29663 c -0.2397,-0.4125 -7.0739,-17.625 -15.187,-38.25 -8.1131,-20.625 -15.0427,-37.82677 -15.3992,-38.22616 -0.3565,-0.39939 -7.2553,16.02561 -15.3306,36.5 -8.0752,20.47439 -14.9741,38.01366 -15.3308,38.97616 -0.6089,1.6431 1.2552,1.75 30.5175,1.75 17.1413,0 30.9699,-0.3375 30.7301,-0.75 z m 342.9206,82.5 c 5.7091,-14.4375 27.5676,-69.7875 48.5745,-123 21.0069,-53.2125 38.4757,-96.75 38.8197,-96.75 0.6187,0 97.0371,243.77412 97.0147,245.28174 -0.01,0.42995 -5.2919,0.65495 -11.7455,0.5 l -11.7339,-0.28174 -15.7364,-40 c -8.655,-22 -16.4175,-41.4625 -17.2499,-43.25 l -1.5135,-3.25 -39.0713,0 -39.0712,0 -2.2571,5.25 c -1.2414,2.8875 -8.9791,22.44908 -17.1949,43.47018 l -14.9379,38.22019 -12.1388,0.0298 -12.1387,0.0298 10.3802,-26.25 z m 118.2306,-82.61688 c -8.9235,-23.20681 -30.4731,-77.07774 -30.8333,-77.07881 -0.4096,-0.001 -20.3225,50.04082 -28.7042,72.1353 l -2.2043,5.81039 31.0376,0 c 17.1039,0 30.8879,-0.38917 30.7042,-0.86688 z m 351.1667,108.44576 c 0,-0.23161 17.8403,-28.91911 39.645,-63.75 21.8048,-34.83088 39.6409,-63.77888 39.6358,-64.32888 -0.01,-0.55 -14.49,-24.07683 -32.1887,-52.28185 -17.6986,-28.20502 -32.4381,-51.95636 -32.7545,-52.78076 -0.496,-1.29257 1.1919,-1.46027 12.2608,-1.21815 l 12.8361,0.28076 26.243,41.98675 c 14.4337,23.09272 26.5984,42.09282 27.0328,42.22244 0.4343,0.12962 9.9948,-14.48942 21.2455,-32.48675 11.2507,-17.99734 23.2811,-37.10994 26.7342,-42.47244 l 6.2785,-9.75 12.6227,0 c 9.6933,0 12.5089,0.2901 12.1319,1.25 -0.2699,0.6875 -15.1681,24.53884 -33.1069,53.00299 -17.9389,28.46414 -32.6162,52.02711 -32.6162,52.36215 0,0.33505 17.7055,28.7962 39.3456,63.24702 21.6401,34.45081 39.6667,63.20034 40.059,63.88784 0.555,0.97232 -2.1573,1.25 -12.2095,1.25 l -12.9229,0 -33.3861,-53.45468 c -18.3624,-29.40007 -33.6631,-53.47507 -34.0018,-53.5 -0.3386,-0.0249 -15.6386,24.01992 -34,53.433 l -33.3843,53.47831 -12.75,0.0217 c -7.0125,0.0119 -12.75,-0.16782 -12.75,-0.39944 z m -1382,-51.60673 0,-51.02785 -6.75,0.77785 c -3.7125,0.42782 -21.15,0.74574 -38.75,0.70649 -34.26395,-0.0764 -49.46359,-1.24856 -77.29982,-5.96113 -76.50286,-12.95166 -146.34624,-46.58674 -206.44017,-99.41718 -16.0466,-14.10706 -40.87434,-39.49756 -53.34128,-54.55033 -41.10572,-49.63168 -69.59787,-104.76031 -84.34234,-163.19151 -1.69201,-6.70532 -3.07639,-12.44282 -3.07639,-12.75 0,-0.30717 13.18459,-0.55849 29.29909,-0.55849 l 29.29909,0 3.2811,11.25 c 7.54774,25.87918 21.76511,58.23985 35.8169,81.52419 24.22413,40.14028 56.65087,76.90147 94.98954,107.6867 12.69669,10.1952 32.7695,23.93171 46.70267,31.96021 41.05191,23.65473 86.57513,38.76902 135.61161,45.02479 6.325,0.80691 20.34997,1.96095 31.1666,2.56454 14.17427,0.79096 25.34515,0.79591 40,0.0177 11.1834,-0.59385 21.1209,-1.32344 22.0834,-1.62132 1.6615,-0.51423 1.75,-15.57805 1.75,-297.97422 l 0,-297.43259 28.6579,0 28.658,0 -0.7229,292.53535 -0.7229,292.53535 2.815,-0.63599 c 6.3703,-1.4393 35.5059,-11.46971 44.8149,-15.4283 20.5994,-8.75974 41.7216,-20.14539 60,-32.3422 20.0202,-13.35904 36.9304,-27.19274 56.3914,-46.13189 47.6966,-46.4176 79.2442,-95.88503 97.9146,-153.53232 12.5242,-38.67005 18.194,-76.06562 18.194,-120 0,-25.28859 -1.7643,-47.24387 -5.5449,-69 -6.7704,-38.96211 -20.4365,-78.355 -38.6709,-111.46973 -9.4854,-17.22604 -24.0779,-38.89083 -37.4028,-55.53027 -12.6621,-15.81173 -42.2608,-45.86176 -57.7042,-58.58412 -50.2527,-41.39831 -106.0122,-67.76331 -166.6772,-78.81066 -27.8286,-5.06771 -39.4697,-6.04319 -72.5,-6.07519 -19.26898,-0.0187 -35.54104,0.47205 -43,1.29675 -34.87868,3.85638 -68.48907,11.93255 -98.5,23.66835 -13.04807,5.10246 -35.86059,16.13462 -47.68038,23.05827 -56.35605,33.01157 -107.09438,83.10394 -140.56541,138.77584 -4.35519,7.24392 -11.14405,19.80669 -15.08637,27.91726 l -7.16784,14.74651 -30.65393,0.003 -30.65392,0.003 1.99178,-5.25 c 3.50456,-9.2374 9.91637,-23.93016 15.38285,-35.25 27.41033,-56.75966 70.71995,-110.11709 124.64537,-153.56203 15.31176,-12.3359 42.77778,-31.02389 58.28785,-39.65928 50.37768,-28.04829 101.64303,-44.09939 162.74325,-50.95465 11.1569,-1.25177 23.99027,-1.7258 47.75675,-1.76401 32.949,-0.053 44.9134,0.70049 70.5,4.43974 35.0062,5.11583 70.6148,15.00527 101.3839,28.15693 17.1509,7.33081 44.1964,21.51243 58.7904,30.82747 26.2758,16.77121 46.7845,32.77724 70.2596,54.83412 38.8794,36.53061 72.8096,82.13981 95.0755,127.80098 23.2641,47.70811 36.5207,97.99138 40.9513,155.33161 1.3342,17.26674 1.3342,52.83348 0,70.10022 -2.9415,38.06808 -9.2293,70.52268 -20.0991,103.74181 -11.9607,36.55327 -28.579,70.28907 -50.5707,102.66057 -5.2132,7.67387 -13.2583,18.77011 -17.8778,24.65832 -18.844,24.019 -43.4913,49.57028 -67.872,70.36136 -18.5421,15.8121 -45.0253,34.36906 -66.1394,46.34424 -12.9753,7.35919 -39.9355,20.22211 -53.4017,25.47837 -13.6696,5.33565 -33.2923,11.59758 -48.5,15.47716 l -11,2.80615 -0.2649,29.71096 -0.2649,29.71095 165.0149,0 165.0149,0 0,25.5 0,25.5 -193,0 -193,0 0,-51.02785 z m -663.5,35.5933 c -13.75,-3.50971 -32.10739,-8.22099 -40.79421,-10.4695 -31.41985,-8.13276 -100.07043,-22.59065 -149.70579,-31.52822 -24.57041,-4.42426 -63.48315,-10.39668 -99,-15.19475 l -27.5,-3.71505 -6.25,-4.91507 c -4.58311,-3.60421 -6.25,-5.55886 -6.25,-7.32896 0,-1.86783 0.5322,-2.4139 2.3526,-2.4139 3.77715,0 48.2928,5.66677 74.77871,9.5192 32.36158,4.70707 85.03303,13.51727 107.36869,17.95925 41.60801,8.27476 109.33913,24.13061 137.4594,32.17925 l 12.45941,3.56615 10.29059,8.95845 c 8.9541,7.79496 11.11883,9.90589 10.0406,9.79108 -0.1375,-0.0146 -11.5,-2.89821 -25.25,-6.40793 z m 1875.5,-266.03687 c -23.6393,-3.99148 -44.2616,-13.37743 -63.6791,-28.98269 -26.3,-21.13638 -45.3032,-52.41164 -50.4472,-83.02507 -0.6905,-4.10977 -1.0571,-7.65073 -0.8146,-7.86881 1.1299,-1.01608 31.2877,-11.55574 31.9297,-11.15892 0.4011,0.24788 1.0291,3.37737 1.3956,6.95442 0.9364,9.14012 5.0449,22.64858 9.7484,32.05249 9.7495,19.49222 28.9862,38.87459 48.3672,48.73335 14.2676,7.25767 29.8147,10.76665 47.7034,10.76665 21.4839,0 40.3843,-5.39054 57.0973,-16.28462 20.6955,-13.49003 37.3819,-34.74162 44.5321,-56.71538 4.8046,-14.76536 6.34,-33.42292 4.0849,-49.6364 -2.0503,-14.74172 -8.3132,-30.67772 -17.208,-43.78635 -2.2104,-3.25751 -7.4315,-9.49474 -11.6025,-13.8605 -19.3644,-20.2685 -47.1182,-37.82934 -77.1072,-48.78851 -47.2115,-17.25296 -81.0035,-44.3639 -93.8951,-75.33084 -1.7134,-4.11589 -4.0985,-11.44658 -5.3001,-16.29042 -1.7914,-7.22141 -2.1752,-11.59752 -2.1315,-24.30698 0.046,-13.34381 0.4102,-16.84899 2.6191,-25.19735 4.8629,-18.37992 17.8205,-39.00756 31.9611,-50.87994 13.6808,-11.48635 26.4946,-18.16159 42.4722,-22.12549 7.2137,-1.78966 11.6201,-2.17121 24.7743,-2.14521 14.0502,0.0278 17.203,0.3523 25.8718,2.6631 5.4295,1.44732 13.6123,4.44198 18.184,6.6548 9.6207,4.65671 21.4992,13.36141 29.6148,21.70217 7.9118,8.13121 15.2739,19.26431 18.8203,28.46047 1.655,4.29161 3.0091,8.232 3.0091,8.75643 0,0.77505 -11.9888,5.87929 -28.1396,11.98044 -2.5125,0.94911 -2.7236,0.77152 -4.3832,-3.68614 -4.7616,-12.78961 -16.6142,-26.64692 -29.0322,-33.94246 -9.5609,-5.61702 -18.8743,-8.30279 -30.945,-8.92389 -12.7719,-0.65719 -22.135,1.24399 -33.5,6.80219 -6.9612,3.40446 -10.1346,5.80666 -17.5291,13.26896 -6.8783,6.94129 -9.9055,10.89856 -12.7079,16.61192 -2.0232,4.125 -4.366,10.425 -5.206,14 -1.9696,8.3818 -1.9934,24.85703 -0.047,32.5399 0.8305,3.27806 3.3778,9.7851 5.6606,14.4601 3.4015,6.96594 5.7911,10.12496 13.2401,17.50362 15.0454,14.90336 39.3363,29.57313 63.0894,38.101 23.1589,8.31453 50.4242,23.96905 69.1597,39.70835 5.0379,4.2322 13.06,11.83811 17.827,16.90203 18.3214,19.46276 30.5019,43.29775 35.1713,68.8241 1.202,6.57086 1.7307,14.65392 1.7307,26.4609 0,19.17759 -1.6158,30.41327 -6.4478,44.83572 -4.1027,12.24567 -12.6314,28.48829 -20.3148,38.68876 -8.3727,11.11542 -24.9593,26.98989 -35.7543,34.21901 -16.3359,10.93974 -34.5506,18.07381 -54.342,21.28388 -10.9883,1.78225 -36.9778,1.78291 -47.5298,10e-4 z m -634.325,-0.51214 c -10.5858,-1.34272 -22.4487,-3.91576 -30.675,-6.6533 -11.3997,-3.79361 -25.3211,-10.7049 -36.3435,-18.04286 -11.4657,-7.63302 -28.1532,-23.26567 -37.1698,-34.82028 -16.281,-20.86372 -26.163,-43.61218 -29.9738,-69 -1.2886,-8.58445 -1.5019,-33.60438 -1.507,-176.75 l -0.006,-166.75 16.9747,0 16.9747,0 0.3097,167.25 c 0.3077,166.20708 0.3228,167.30612 2.4237,176.25 3.0681,13.06166 7.8159,25.34674 13.3623,34.57507 15.5088,25.80419 40.3003,45.96042 66.8192,54.32597 14.5114,4.5777 24.8267,5.87921 42.1357,5.31635 12.1299,-0.39445 17.5816,-1.04854 25.0738,-3.00841 18.6591,-4.88099 33.6843,-12.74372 48.2153,-25.2313 9.4801,-8.14693 20.7659,-21.70171 26.6903,-32.05614 5.8599,-10.24188 10.7806,-23.6198 13.1126,-35.64954 1.8301,-9.4413 1.908,-16.61468 1.908,-175.80746 l 0,-165.96454 17.5167,0 17.5167,0 -0.2667,171.75 -0.2667,171.75 -3.1524,11.63567 c -7.3346,27.07191 -20.3405,50.32912 -39.1969,70.09186 -13.2986,13.93783 -27.9026,24.65554 -44.6507,32.76876 -20.2262,9.79808 -38.0731,13.90654 -63,14.503 -8.8,0.21057 -19.0713,-0.007 -22.825,-0.48285 z m 238.325,-237.51644 0,-234.5 119.5,0 119.5,0 0,17 0,17 -102,0 -102,0 0,91.5 0,91.5 102,0 102,0 0,17 0,17 -102,0 -102,0 0,92 0,92 102,0 102,0 0,17 0,17 -119.5,0 -119.5,0 0,-234.5 z m 698,17 0,-217.5 -58.5,0 -58.5,0 0,-17 0,-17 134,0 134,0 0,17 0,17 -58.5,0 -58.5,0 0,217.5 0,217.5 -17,0 -17,0 0,-217.5 z m -2278,39.37006 c -3.025,-0.49287 -9.2775,-2.70071 -13.89443,-4.90632 -6.59467,-3.1504 -10.04979,-5.66681 -16.11527,-11.73696 -5.45991,-5.46412 -8.80574,-9.88331 -11.42572,-15.09113 -3.53691,-7.03043 -7.56483,-20.10066 -7.56436,-24.54561 1.9e-4,-1.77644 2.03072,-2.82284 13.53279,-6.97392 7.44291,-2.68613 13.64809,-4.71113 13.78929,-4.5 0.14119,0.21114 1.04771,4.37155 2.01449,9.24536 0.96677,4.87382 2.73746,10.94882 3.93486,13.5 3.06278,6.52558 9.67325,12.5985 16.50737,15.16503 4.46971,1.67858 7.36135,2.07125 13.22098,1.79534 8.97079,-0.4224 14.93734,-3.0053 21.10055,-9.13437 2.31594,-2.30311 5.37824,-6.66248 6.80512,-9.68748 2.12861,-4.51268 2.58992,-6.9361 2.56978,-13.5 -0.0299,-9.74698 -2.20787,-15.16146 -9.03421,-22.45936 -5.91704,-6.3258 -14.79799,-11.96312 -25.89729,-16.43872 -12.84895,-5.18112 -20.92225,-10.05081 -28.47496,-17.17565 -10.55619,-9.95817 -15.08454,-20.40168 -15.05712,-34.72549 0.0233,-12.17447 4.68717,-23.18243 13.59683,-32.09208 6.0904,-6.09041 12.79018,-9.95661 20.92626,-12.07579 10.86011,-2.8287 23.81961,-1.45364 33.67217,3.57276 5.45393,2.78239 14.09759,11.03221 17.32,16.53083 1.41463,2.41388 3.65543,7.26715 4.97956,10.78504 l 2.40751,6.39616 -12.7071,5.09487 c -6.98891,2.80218 -12.98346,5.0932 -13.32124,5.09115 -0.33778,-0.002 -1.42576,-2.14122 -2.41773,-4.75372 -2.64398,-6.9633 -5.50494,-10.89642 -9.60428,-13.20355 -4.45095,-2.50502 -11.71905,-2.68353 -16.51917,-0.40572 -5.06284,2.40247 -8.55745,7.51825 -9.11754,13.3472 -0.25915,2.69699 -0.18477,6.04476 0.16529,7.4395 0.84269,3.35754 5.8421,8.94983 11.45071,12.80865 2.49309,1.7153 9.52431,5.20306 15.62492,7.75058 18.79458,7.84833 32.13857,17.88128 40.92681,30.77165 5.44207,7.98228 8.23737,15.4529 9.69004,25.8972 1.25479,9.02162 -0.0785,21.57967 -3.16783,29.83658 -2.9709,7.94043 -8.80003,16.2798 -16.20286,23.18043 -14.14945,13.18955 -33.11118,18.55445 -53.71422,15.19754 z m 437,-0.43014 c -3.575,-0.77059 -9.875,-3.05647 -14,-5.07973 -5.44302,-2.66974 -9.5867,-5.76054 -15.10835,-11.26943 -5.97445,-5.96063 -8.48238,-9.41615 -11.67829,-16.09076 -2.23846,-4.675 -4.85355,-12.21115 -5.81131,-16.74701 -0.95775,-4.53585 -1.55252,-8.40524 -1.32171,-8.59864 0.95146,-0.79722 26.98858,-9.91227 27.27689,-9.54906 0.17233,0.21709 1.02287,4.0928 1.89008,8.61269 0.86722,4.51989 2.67866,10.62485 4.02543,13.56658 2.90848,6.35296 8.23078,11.79762 14.59998,14.93564 3.77812,1.86143 6.27888,2.2798 13.62728,2.2798 7.5321,0 9.81292,-0.40001 13.98418,-2.45257 6.14666,-3.02459 12.57812,-9.50562 15.6766,-15.79741 1.93031,-3.9197 2.33761,-6.32326 2.33001,-13.75002 -0.008,-7.77616 -0.36711,-9.68019 -2.64119,-14.00204 -2.90092,-5.51313 -10.95466,-13.63621 -17.87969,-18.03363 -2.45845,-1.56113 -9.08308,-4.72472 -14.72141,-7.03022 -5.63832,-2.30549 -12.80682,-5.70882 -15.93001,-7.56296 -7.80082,-4.63109 -18.39168,-14.7523 -21.59444,-20.63683 -7.48961,-13.76089 -7.50498,-31.67952 -0.0389,-45.39711 3.17244,-5.82882 13.29655,-15.76689 19.05456,-18.70441 9.85543,-5.02786 22.84211,-6.43462 33.58072,-3.63756 8.23209,2.14418 13.30713,5.00786 19.72679,11.13118 6.04603,5.76694 9.88274,11.95026 12.95394,20.87685 1.79864,5.22786 1.81226,5.62768 0.21083,6.19246 -0.94158,0.33207 -6.64243,2.56138 -12.66855,4.95402 -6.02615,2.39264 -11.31365,4.35025 -11.75003,4.35025 -0.43638,0 -0.79341,-0.49816 -0.79341,-1.10703 0,-0.60887 -1.36934,-3.97624 -3.04299,-7.48304 -2.38802,-5.00366 -3.96739,-6.91775 -7.33785,-8.89297 -8.53606,-5.00246 -19.31482,-2.30517 -24.21722,6.06015 -2.6008,4.43793 -3.12669,10.37448 -1.33832,15.10779 2.49908,6.61438 10.99193,12.86919 25.75963,18.97147 5.7768,2.38707 13.91731,6.45911 18.09002,9.04896 9.76315,6.05964 22.65819,18.97032 26.76221,26.79467 5.14528,9.80953 6.74072,16.657 6.7569,29 0.0112,8.55382 -0.47289,12.55666 -2.1769,18 -3.1508,10.06503 -8.68517,18.704 -17.10768,26.70457 -15.00538,14.25364 -34.59493,19.66553 -55.1478,15.23535 z m -312,-97.30135 0,-97.13857 13.03941,0 c 24.55728,0 41.08365,2.97169 55.88897,10.04966 11.00616,5.26172 19.18937,11.18334 27.01479,19.54874 12.60159,13.47114 20.65031,28.847 24.28433,46.39157 1.64213,7.92793 1.88602,12.08863 1.46607,25.01003 -0.38105,11.7245 -1.02722,17.31047 -2.65281,22.93273 -4.88822,16.90645 -14.13296,32.11302 -26.99149,44.39798 -12.15782,11.61552 -26.51008,18.983 -44.53629,22.86194 -6.26996,1.3492 -14.87154,2.11369 -28.26298,2.51197 l -19.25,0.57252 0,-97.13857 z m 46.5,64.69704 c 10.55778,-3.0427 18.23155,-7.56152 26.06916,-15.35121 7.98781,-7.93898 14.10796,-17.68411 17.5748,-27.9844 2.0507,-6.09281 2.35308,-8.87917 2.33323,-21.5 -0.0209,-13.28081 -0.2583,-15.17185 -2.82363,-22.4904 -1.54045,-4.39472 -4.44201,-10.69472 -6.44791,-14 -4.61667,-7.60729 -15.07483,-17.99531 -22.58674,-22.43528 -6.28816,-3.71667 -18.02075,-7.4493 -26.36891,-8.38908 l -5.25,-0.59101 0,67.98733 0,67.98733 5.25,-0.60796 c 2.8875,-0.33437 8.4,-1.51577 12.25,-2.62532 z m 135.5,-64.83561 0,-97 14.5,0 14.5,0 0,97 0,97 -14.5,0 -14.5,0 0,-97 z"
         id="path3412"
         inkscape:connector-curvature="0" />
      <path
         style="fill:#013492"
         d="m 84.9169,1146.3636 c -34.6705,-8.9557 -61.7214,-16.9392 -96.0107,-28.3353 -35.83691,-11.9105 -66.05243,-23.1143 -96.5,-35.7818 -22.64092,-9.4197 -67.81401,-29.6831 -68.44379,-30.7021 -0.20345,-0.3292 40.42567,-12.4763 90.28694,-26.9934 l 90.65685,-26.39493 219.9034,-24.227 219.9034,-24.2271 6.3555,2.9741 6.3554,2.9741 141.7412,-18.1724 c 343.6086,-44.0537 431.347,-54.3908 499.0065,-58.7916 l 11.2654,-0.7328 -13.7654,-7.821 c -31.9932,-18.1774 -80.5973,-40.7618 -123.0704,-57.1859 l -18.305,-7.0784 -173.6691,23.1555 -173.669,23.1556 -39.526,-13.981 c -55.579,-19.6592 -108.2397,-37.8018 -130.5259,-44.9685 -17.6903,-5.6888 -19.787,-6.1408 -30.4166,-6.5564 -12.2451,-0.4787 -55.109,0.8316 -111.5834,3.411 -31.04,1.4177 -49.4257,1.4709 -162.5,0.4694 -70.125,-0.621 -200.54825,-1.1226 -289.82946,-1.1147 l -162.32945,0.014 0.654,-2.9777 c 0.35971,-1.6377 3.915,-19.0752 7.90066,-38.75 l 7.24666,-35.7723 4.42879,-0.2998 c 18.30232,-1.239 785.4233,-42.039 785.6755,-41.7868 0.1781,0.178 4.6068,19.8318 9.8418,43.6751 5.2349,23.8432 9.6065,43.4075 9.7147,43.4761 0.1083,0.069 44.2968,-3.1314 98.1968,-7.1113 58.798,-4.3415 123.2013,-9.7445 161,-13.5067 34.65,-3.4488 63.336,-6.5562 63.7467,-6.9053 0.4107,-0.3491 -34.9143,-18.1933 -78.5,-39.6537 l -79.2467,-39.019 -0.2838,-10.6843 c -0.1628,-6.128 0.113,-10.6843 0.6467,-10.6843 0.5118,0 49.4645,21.2161 108.7838,47.1468 l 107.8533,47.1468 32.121,2.2894 c 17.6666,1.2592 34.0857,2.4306 36.487,2.6032 l 4.3659,0.3138 7.513,29.399 7.5131,29.3991 32,14.8956 c 17.6,8.1926 52.475,24.9317 77.5,37.1981 25.025,12.2663 53.9195,26.2769 64.2099,31.1345 16.1334,7.6159 18.7836,9.1861 19.2447,11.4029 0.9546,4.5885 11.5697,79.38 11.3035,79.6416 -0.3236,0.3182 -76.7923,8.5495 -110.2581,11.8685 -38.6388,3.8321 -54.7454,5.2445 -114,9.9966 -30.25,2.4261 -96.7855,7.9072 -147.8567,12.1803 l -92.8567,7.76933 -61.1433,-8.17063 -61.1433,-8.1706 -41.445,-1.4939 c -22.7947,-0.8216 -41.5229,-1.3941 -41.6183,-1.2721 -0.095,0.1219 7.2306,12.746 16.2798,28.05353 9.0493,15.3075 16.1989,28.0861 15.8881,28.3969 -1.7284,1.7284 -70.8829,16.6126 -154.6046,33.2756 -97.4582,19.3971 -114.3733,23.1025 -156.5,34.283 -20.6407,5.4781 -30.821,8.9832 -72.7311,25.0412 -26.8021,10.2693 -49.0771,18.6374 -49.5,18.5958 -0.4229,-0.042 -11.1141,-2.7479 -23.7582,-6.0141 z M -217.0938,623.34727 c -85.59934,-4.3274 -113.80967,-6.1844 -136.5,-8.9853 -9.075,-1.1203 -69.6,-9.676 -134.5,-19.0128 -136.05996,-19.5741 -198.91925,-28.4938 -233.5,-33.1335 l -24.5,-3.2871 -6.78926,-9.9876 c -9.05438,-13.3198 -21.0701,-32.4845 -20.59322,-32.8456 0.21036,-0.1593 21.30748,0.4954 46.88248,1.4549 77.99225,2.9259 145.23869,4.8545 241,6.9117 143.53683,3.0835 280.48423,6.178 280.66378,6.3419 0.30454,0.278 22.33622,91.6867 22.33622,92.6722 0,1.1131 -10.72674,1.073 -34.5,-0.1288 z m 445.7519,-40.2851 c -61.7365,-22.1494 -112.4823,-40.5059 -112.7686,-40.7921 -0.2862,-0.2862 13.3255,-0.8304 30.2482,-1.2092 84.1299,-1.8834 165.6551,-4.2755 242.2685,-7.1089 88.2461,-3.2635 186.1547,-5.7531 187.1113,-4.7578 0.4013,0.4176 5.6921,9.3092 11.7573,19.7592 10.4809,18.0579 10.9187,19.0357 8.8295,19.7201 -3.6149,1.1842 -252.1694,54.785 -253.7454,54.7202 -0.799,-0.033 -51.9644,-18.1821 -113.7008,-40.3315 z M 87.9062,533.90797 c -12.9715,-3.1449 -80.933,-17.51 -93.54591,-19.7729 -3.89701,-0.6991 -36.60193,-0.2465 -110,1.5225 l -104.45409,2.5174 -78.31735,-23.1108 c -77.46857,-22.8603 -78.2543,-23.118 -72.5,-23.7753 5.88421,-0.6722 55.84662,-2.1283 130.81735,-3.8126 72.80245,-1.6356 170.79361,-2.2935 227.82561,-1.5297 l 55.63249,0.745 6.1496,11.1309 c 10.8722,19.6791 19.2881,33.0261 23.4931,37.258 3.3877,3.4094 10.9891,8.7366 30.0567,21.0641 2.9254,1.8913 0.2238,1.4927 -15.1575,-2.2366 z m 419,-47.5097 c -8.25,-0.9995 -81.8827,-9.2606 -163.6283,-18.3582 -155.137,-17.2653 -214.425,-24.0426 -377.3717,-43.138 l -98,-11.4845 -80.30743,-26.7321 c -44.16909,-14.7026 -79.70509,-26.8586 -78.9689,-27.0133 1.71031,-0.3592 229.53417,17.8372 273.27633,21.8268 53.1071,4.8437 124.5978,12.8118 202,22.5142 32.2493,4.0425 158.2784,20.2434 163.5,21.0178 3.6542,0.5419 3.8176,0.6163 -32,-14.5568 -21.1374,-8.9543 -52.7151,-23.5339 -94.25,-43.516 l -28.75,-13.8313 0,-8.8367 c 0,-4.8603 0.2515,-8.8368 0.5589,-8.8368 0.3075,0 19.32,7.608 42.25,16.9066 53.5397,21.7114 102.0929,41.1108 149.1911,59.6089 20.625,8.1007 43.8,17.3305 51.5,20.5109 12.3453,5.099 15.7138,6.0362 28.5,7.9294 17.5435,2.5977 49.7949,8.9096 52.3347,10.2424 1.0091,0.5296 3.666,4.7792 5.9041,9.4437 3.2956,6.8681 4.1593,9.8816 4.5421,15.8462 0.6125,9.544 -0.127,12.5488 -3.05,12.3929 -1.227,-0.065 -8.9809,-0.9367 -17.2309,-1.9361 z m -1076,-154.0237 c -17.82932,-1.0721 -77.95239,-3.6973 -112.63236,-4.9179 -15.7478,-0.5543 -65.23874,-1.4702 -109.97987,-2.0354 -44.74112,-0.5652 -81.72648,-1.4066 -82.18967,-1.8698 -0.46319,-0.4632 -5.06633,-11.2709 -10.22921,-24.0172 -6.25949,-15.4537 -8.9842,-23.3078 -8.17796,-23.5733 3.39471,-1.1182 76.14813,-5.163 107.70907,-5.9883 12.375,-0.3236 44.775,-1.2486 72,-2.0557 90.47539,-2.6819 140.97984,-3.4372 194,-2.9011 28.875,0.2919 73.09516,0.1722 98.26701,-0.2659 l 45.76702,-0.7966 -17.15029,-17.8025 c -11.82534,-12.275 -16.41032,-17.6348 -14.76702,-17.2624 3.45668,0.7833 185.43537,24.2849 232.88328,30.0757 33.61053,4.102 115.78871,16.6074 168,25.5653 32.9342,5.6505 89.759,16.944 98.25,19.5264 1.4862,0.4521 1.75,1.8033 1.75,8.9649 0,6.6927 -0.2986,8.4326 -1.4474,8.4326 -0.796,0 -31.2835,-3.8233 -67.75,-8.4962 -89.42302,-11.459 -133.83603,-16.6734 -187.3026,-21.9909 -60.85195,-6.052 -74.87129,-7.1844 -111,-8.9654 -37.20132,-1.834 -84.70286,-3.678 -85.07811,-3.3027 -0.14845,0.1484 3.04716,5.3051 7.10136,11.4592 l 7.37127,11.1893 -4.19726,0.5688 c -35.01676,4.7459 -53.96724,7.7222 -83.69726,13.1455 -19.525,3.5617 -51.25,9.1555 -70.5,12.4308 -37.4466,6.3713 -39.61666,6.5295 -67,4.8828 z m 537.5,-98.5093 c -5.775,-1.2844 -30.3,-6.37 -54.5,-11.3013 -85.67244,-17.4577 -176.57075,-31.2514 -274,-41.579 -13.2,-1.3993 -25.14963,-2.919 -26.55472,-3.3773 -2.76906,-0.9031 -20.22972,-14.2032 -19.54507,-14.8878 1.01202,-1.0121 89.87883,7.2254 132.59979,12.2913 50.35783,5.9714 125.59969,17.4263 164.45585,25.0368 21.68234,4.2468 80.8946,17.2079 83.99003,18.3848 1.79621,0.6829 2.44155,2.187 3.50917,8.1787 0.71951,4.0381 1.52211,7.9044 1.78356,8.5919 0.56422,1.4836 1.35353,1.5736 -11.73861,-1.3381 z m -507,-126.4949 c -83.19461,-12.0341 -205.14958,-27.7088 -256,-32.9034 -34.03503,-3.4768 -106.31547,-10.0646 -138.76983,-12.6476 -12.24841,-0.9749 -22.74387,-2.0654 -23.32324,-2.4235 -0.57937,-0.3581 -2.36976,-7.1291 -3.97865,-15.0468 l -2.92523,-14.3957 3.74847,-8.28559 3.74848,-8.28559 6,0.56707 c 33.3628,3.15316 79.9912,7.99156 97,10.06521 37.31864,4.54977 55.44241,7.49548 138,22.4296 26.95,4.875 64.525,11.6256 83.5,15.0012 18.975,3.3756 52.55148,9.4834 74.61441,13.5728 22.06293,4.0894 40.42984,7.4353 40.81536,7.4353 0.59918,0 14.57023,28.3509 14.57023,29.5668 0,0.6752 -1.42232,0.4964 -37,-4.6498 z M 782.1724,24.36384 c -8.341,-20.60665 -96.7662,-245.49664 -96.7662,-246.10355 0,-0.47872 5.2715,-0.74361 11.7144,-0.58866 l 11.7143,0.28174 36.6371,92.76811 c 20.1504,51.02246 36.8164,92.94289 37.0356,93.1565 0.2193,0.21361 12.5009,-30.28204 27.2926,-67.76811 14.7917,-37.48608 31.3852,-79.519 36.8743,-93.4065 l 9.9803,-25.25 11.9827,0 c 10.9974,0 11.9283,0.1439 11.3213,1.75 -0.3637,0.9625 -22.0289,55.86928 -48.1448,122.01507 -26.1159,66.14579 -47.8405,121.2305 -48.277,122.41047 -0.5844,1.5796 -0.9442,1.77342 -1.3646,0.73493 z M 1231.4062,12.9373 c -8.4986,-1.73651 -13.4081,-3.55451 -22.8146,-8.44827 -9.9074,-5.15441 -19.7388,-13.33286 -26.6583,-22.1762 -6.7805,-8.66584 -10.9215,-17.01722 -13.5213,-27.26942 -1.9298,-7.61038 -2.0058,-11.12327 -2.0058,-92.75 l 0,-84.84004 11,0 11,0 0.015,82.25 c 0.016,89.39182 -0.039,88.41138 5.6528,100.57376 1.7949,3.83536 5.4416,8.4681 11.2444,14.28479 6.7127,6.7287 10.2258,9.38251 16.088,12.15285 13.7281,6.48755 28.8367,8.30727 43.5,5.23925 3.85,-0.80555 10.8098,-3.34273 15.4662,-5.63818 6.5176,-3.21302 10.2,-5.92142 16,-11.76802 4.4326,-4.46831 8.6902,-9.91254 10.343,-13.22587 5.8114,-11.64951 5.666,-9.08698 5.6789,-100.11858 l 0.012,-83.75 11.5266,0 11.5265,0 -0.2765,86.75 -0.2766,86.75 -2.8078,8 c -3.8668,11.01764 -9.6424,20.38877 -17.9668,29.15226 -12.1086,12.74723 -27.398,21.36529 -43.9332,24.76362 -9.363,1.92429 -29.5345,1.95967 -38.7922,0.068 z M 455.6875,9.23436 c 0.7337,-1.80454 22.683,-57.36956 48.7763,-123.47782 26.0933,-66.10825 47.7108,-119.88325 48.0388,-119.5 0.447,0.52223 93.0179,235.08442 96.472,244.44683 0.5919,1.60462 -0.3394,1.74988 -11.2114,1.74852 l -11.857,-0.001 -17.0731,-43.24852 -17.0731,-43.24852 -38.865,-0.26192 c -25.9462,-0.17485 -39.2111,0.0842 -39.9063,0.77938 -0.5727,0.57271 -8.5389,20.04058 -17.7028,43.26192 l -16.6615,42.22062 -12.1355,0.28099 -12.1354,0.28099 1.334,-3.28099 z M 583.0883,-96.29663 c -0.2397,-0.4125 -7.0739,-17.625 -15.187,-38.25 -8.1131,-20.625 -15.0427,-37.82677 -15.3992,-38.22616 -0.3565,-0.39939 -7.2553,16.02561 -15.3306,36.5 -8.0752,20.47439 -14.9741,38.01366 -15.3308,38.97616 -0.6089,1.6431 1.2552,1.75 30.5175,1.75 17.1413,0 30.9699,-0.3375 30.7301,-0.75 z m 342.9206,82.5 c 5.7091,-14.4375 27.5676,-69.7875 48.5745,-123 21.0069,-53.2125 38.4757,-96.75 38.8197,-96.75 0.6187,0 97.0371,243.77412 97.0147,245.28174 -0.01,0.42995 -5.2919,0.65495 -11.7455,0.5 l -11.7339,-0.28174 -15.7364,-40 c -8.655,-22 -16.4175,-41.4625 -17.2499,-43.25 l -1.5135,-3.25 -39.0713,0 -39.0712,0 -2.2571,5.25 c -1.2414,2.8875 -8.9791,22.44908 -17.1949,43.47018 l -14.9379,38.22019 -12.1388,0.0298 -12.1387,0.0298 10.3802,-26.25 z m 118.2306,-82.61688 c -8.9235,-23.20681 -30.4731,-77.07774 -30.8333,-77.07881 -0.4096,-0.001 -20.3225,50.04082 -28.7042,72.1353 l -2.2043,5.81039 31.0376,0 c 17.1039,0 30.8879,-0.38917 30.7042,-0.86688 z m 351.1667,108.44576 c 0,-0.23161 17.8403,-28.91911 39.645,-63.75 21.8048,-34.83088 39.6409,-63.77888 39.6358,-64.32888 -0.01,-0.55 -14.49,-24.07683 -32.1887,-52.28185 -17.6986,-28.20502 -32.4381,-51.95636 -32.7545,-52.78076 -0.496,-1.29257 1.1919,-1.46027 12.2608,-1.21815 l 12.8361,0.28076 26.243,41.98675 c 14.4337,23.09272 26.5984,42.09282 27.0328,42.22244 0.4343,0.12962 9.9948,-14.48942 21.2455,-32.48675 11.2507,-17.99734 23.2811,-37.10994 26.7342,-42.47244 l 6.2785,-9.75 12.6227,0 c 9.6933,0 12.5089,0.2901 12.1319,1.25 -0.2699,0.6875 -15.1681,24.53884 -33.1069,53.00299 -17.9389,28.46414 -32.6162,52.02711 -32.6162,52.36215 0,0.33505 17.7055,28.7962 39.3456,63.24702 21.6401,34.45081 39.6667,63.20034 40.059,63.88784 0.555,0.97232 -2.1573,1.25 -12.2095,1.25 l -12.9229,0 -33.3861,-53.45468 c -18.3624,-29.40007 -33.6631,-53.47507 -34.0018,-53.5 -0.3386,-0.0249 -15.6386,24.01992 -34,53.433 l -33.3843,53.47831 -12.75,0.0217 c -7.0125,0.0119 -12.75,-0.16782 -12.75,-0.39944 z m -1382,-377.57888 0,-377 28.5686,0 28.5687,0 -0.559,351.5 -0.5591,351.5 164.9904,0 164.9904,0 0,25.5 0,25.5 -193,0 -193,0 0,-377 z m -663.5,361.56545 c -13.75,-3.50971 -32.10739,-8.22099 -40.79421,-10.4695 -31.41985,-8.13276 -100.07043,-22.59065 -149.70579,-31.52822 -24.57041,-4.42426 -63.48315,-10.39668 -99,-15.19475 l -27.5,-3.71505 -6.25,-4.91507 c -4.58311,-3.60421 -6.25,-5.55886 -6.25,-7.32896 0,-1.86783 0.5322,-2.4139 2.3526,-2.4139 3.77715,0 48.2928,5.66677 74.77871,9.5192 32.36158,4.70707 85.03303,13.51727 107.36869,17.95925 41.60801,8.27476 109.33913,24.13061 137.4594,32.17925 l 12.45941,3.56615 10.29059,8.95845 c 8.9541,7.79496 11.11883,9.90589 10.0406,9.79108 -0.1375,-0.0146 -11.5,-2.89821 -25.25,-6.40793 z m -100.5,-447.69539 c -3.025,-0.49287 -9.2775,-2.70071 -13.89443,-4.90632 -6.59467,-3.1504 -10.04979,-5.66681 -16.11527,-11.73696 -5.45991,-5.46412 -8.80574,-9.88331 -11.42572,-15.09113 -3.53691,-7.03043 -7.56483,-20.10066 -7.56436,-24.54561 1.9e-4,-1.77644 2.03072,-2.82284 13.53279,-6.97392 7.44291,-2.68613 13.64809,-4.71113 13.78929,-4.5 0.14119,0.21114 1.04771,4.37155 2.01449,9.24536 0.96677,4.87382 2.73746,10.94882 3.93486,13.5 3.06278,6.52558 9.67325,12.5985 16.50737,15.16503 4.46971,1.67858 7.36135,2.07125 13.22098,1.79534 8.97079,-0.4224 14.93734,-3.0053 21.10055,-9.13437 2.31594,-2.30311 5.37824,-6.66248 6.80512,-9.68748 2.12861,-4.51268 2.58992,-6.9361 2.56978,-13.5 -0.0299,-9.74698 -2.20787,-15.16146 -9.03421,-22.45936 -5.91704,-6.3258 -14.79799,-11.96312 -25.89729,-16.43872 -12.84895,-5.18112 -20.92225,-10.05081 -28.47496,-17.17565 -10.55619,-9.95817 -15.08454,-20.40168 -15.05712,-34.72549 0.0233,-12.17447 4.68717,-23.18243 13.59683,-32.09208 6.0904,-6.09041 12.79018,-9.95661 20.92626,-12.07579 10.86011,-2.8287 23.81961,-1.45364 33.67217,3.57276 5.45393,2.78239 14.09759,11.03221 17.32,16.53083 1.41463,2.41388 3.65543,7.26715 4.97956,10.78504 l 2.40751,6.39616 -12.7071,5.09487 c -6.98891,2.80218 -12.98346,5.0932 -13.32124,5.09115 -0.33778,-0.002 -1.42576,-2.14122 -2.41773,-4.75372 -2.64398,-6.9633 -5.50494,-10.89642 -9.60428,-13.20355 -4.45095,-2.50502 -11.71905,-2.68353 -16.51917,-0.40572 -5.06284,2.40247 -8.55745,7.51825 -9.11754,13.3472 -0.25915,2.69699 -0.18477,6.04476 0.16529,7.4395 0.84269,3.35754 5.8421,8.94983 11.45071,12.80865 2.49309,1.7153 9.52431,5.20306 15.62492,7.75058 18.79458,7.84833 32.13857,17.88128 40.92681,30.77165 5.44207,7.98228 8.23737,15.4529 9.69004,25.8972 1.25479,9.02162 -0.0785,21.57967 -3.16783,29.83658 -2.9709,7.94043 -8.80003,16.2798 -16.20286,23.18043 -14.14945,13.18955 -33.11118,18.55445 -53.71422,15.19754 z m 437,-0.43014 c -3.575,-0.77059 -9.875,-3.05647 -14,-5.07973 -5.44302,-2.66974 -9.5867,-5.76054 -15.10835,-11.26943 -5.97445,-5.96063 -8.48238,-9.41615 -11.67829,-16.09076 -2.23846,-4.675 -4.85355,-12.21115 -5.81131,-16.74701 -0.95775,-4.53585 -1.55252,-8.40524 -1.32171,-8.59864 0.95146,-0.79722 26.98858,-9.91227 27.27689,-9.54906 0.17233,0.21709 1.02287,4.0928 1.89008,8.61269 0.86722,4.51989 2.67866,10.62485 4.02543,13.56658 2.90848,6.35296 8.23078,11.79762 14.59998,14.93564 3.77812,1.86143 6.27888,2.2798 13.62728,2.2798 7.5321,0 9.81292,-0.40001 13.98418,-2.45257 6.14666,-3.02459 12.57812,-9.50562 15.6766,-15.79741 1.93031,-3.9197 2.33761,-6.32326 2.33001,-13.75002 -0.008,-7.77616 -0.36711,-9.68019 -2.64119,-14.00204 -2.90092,-5.51313 -10.95466,-13.63621 -17.87969,-18.03363 -2.45845,-1.56113 -9.08308,-4.72472 -14.72141,-7.03022 -5.63832,-2.30549 -12.80682,-5.70882 -15.93001,-7.56296 -7.80082,-4.63109 -18.39168,-14.7523 -21.59444,-20.63683 -7.48961,-13.76089 -7.50498,-31.67952 -0.0389,-45.39711 3.17244,-5.82882 13.29655,-15.76689 19.05456,-18.70441 9.85543,-5.02786 22.84211,-6.43462 33.58072,-3.63756 8.23209,2.14418 13.30713,5.00786 19.72679,11.13118 6.04603,5.76694 9.88274,11.95026 12.95394,20.87685 1.79864,5.22786 1.81226,5.62768 0.21083,6.19246 -0.94158,0.33207 -6.64243,2.56138 -12.66855,4.95402 -6.02615,2.39264 -11.31365,4.35025 -11.75003,4.35025 -0.43638,0 -0.79341,-0.49816 -0.79341,-1.10703 0,-0.60887 -1.36934,-3.97624 -3.04299,-7.48304 -2.38802,-5.00366 -3.96739,-6.91775 -7.33785,-8.89297 -8.53606,-5.00246 -19.31482,-2.30517 -24.21722,6.06015 -2.6008,4.43793 -3.12669,10.37448 -1.33832,15.10779 2.49908,6.61438 10.99193,12.86919 25.75963,18.97147 5.7768,2.38707 13.91731,6.45911 18.09002,9.04896 9.76315,6.05964 22.65819,18.97032 26.76221,26.79467 5.14528,9.80953 6.74072,16.657 6.7569,29 0.0112,8.55382 -0.47289,12.55666 -2.1769,18 -3.1508,10.06503 -8.68517,18.704 -17.10768,26.70457 -15.00538,14.25364 -34.59493,19.66553 -55.1478,15.23535 z m -312,-97.30135 0,-97.13857 13.03941,0 c 24.55728,0 41.08365,2.97169 55.88897,10.04966 11.00616,5.26172 19.18937,11.18334 27.01479,19.54874 12.60159,13.47114 20.65031,28.847 24.28433,46.39157 1.64213,7.92793 1.88602,12.08863 1.46607,25.01003 -0.38105,11.7245 -1.02722,17.31047 -2.65281,22.93273 -4.88822,16.90645 -14.13296,32.11302 -26.99149,44.39798 -12.15782,11.61552 -26.51008,18.983 -44.53629,22.86194 -6.26996,1.3492 -14.87154,2.11369 -28.26298,2.51197 l -19.25,0.57252 0,-97.13857 z m 46.5,64.69704 c 10.55778,-3.0427 18.23155,-7.56152 26.06916,-15.35121 7.98781,-7.93898 14.10796,-17.68411 17.5748,-27.9844 2.0507,-6.09281 2.35308,-8.87917 2.33323,-21.5 -0.0209,-13.28081 -0.2583,-15.17185 -2.82363,-22.4904 -1.54045,-4.39472 -4.44201,-10.69472 -6.44791,-14 -4.61667,-7.60729 -15.07483,-17.99531 -22.58674,-22.43528 -6.28816,-3.71667 -18.02075,-7.4493 -26.36891,-8.38908 l -5.25,-0.59101 0,67.98733 0,67.98733 5.25,-0.60796 c 2.8875,-0.33437 8.4,-1.51577 12.25,-2.62532 z"
         id="path3410"
         inkscape:connector-curvature="0" />
      <path
         style="fill:#000000"
         d="m 84.9062,1145.9944 c -72.26,-18.5938 -144.16552,-43.0611 -209.5,-71.2867 -26.37902,-11.3962 -50,-22.3717 -50,-23.2325 0,-0.4054 5.5125,-2.3236 12.25,-4.2627 6.7375,-1.9391 47.13326,-13.6822 89.76836,-26.0956 L 4.9429,998.54707 141.9246,983.46987 c 75.3399,-8.2925 174.2271,-19.177 219.7494,-24.1879 l 82.7677,-9.1107 6.7323,2.9472 6.7322,2.9472 134.5,-17.256 c 238.8393,-30.6424 380.5711,-48.2116 422,-52.3116 52.635,-5.209 75.06,-7.0447 86.0603,-7.0447 4.9168,0 8.9397,-0.4026 8.9397,-0.8946 0,-1.3307 -22.6772,-14.0731 -46.5,-26.1285 -25.2411,-12.7731 -52.7221,-24.9693 -84.7425,-37.6093 l -23.7425,-9.3722 -173.8323,23.1782 -173.8323,23.1783 -40.4252,-14.3054 c -59.792,-21.1588 -109.9665,-38.4116 -131.4252,-45.1913 l -19,-6.003 -22.5,0.068 c -22.7282,0.069 -47.7046,0.9057 -107,3.5839 -26.8127,1.211 -45.9746,1.2996 -109.5,0.5065 -42.35,-0.5287 -171.3189,-0.9726 -286.5975,-0.9862 l -209.5975,-0.0244 7.74736,-38.0665 c 4.26106,-20.9366 7.98405,-38.3032 8.27333,-38.5925 0.70227,-0.7023 788.46731,-42.8813 789.09821,-42.2504 0.2709,0.2708 4.6399,19.5987 9.7091,42.9509 5.0691,23.3522 9.514,42.8121 9.8776,43.2442 0.3635,0.4322 44.0473,-2.3848 97.0751,-6.2599 63.9091,-4.6703 118.497,-9.2698 161.9143,-13.6427 36.025,-3.6284 65.6875,-6.7739 65.9167,-6.9901 0.2291,-0.2161 0.2291,-0.563 0,-0.7707 -0.2292,-0.2077 -35.7255,-17.764 -78.8807,-39.014 -43.1552,-21.25 -78.8343,-39.0066 -79.2868,-39.4591 -0.4525,-0.4525 -0.6937,-5.3428 -0.536,-10.8673 l 0.2868,-10.0445 108.3049,47.304 108.3049,47.3041 35.5906,2.5227 c 19.5747,1.3875 35.9005,2.8847 36.2795,3.3272 0.379,0.4425 3.9517,13.6296 7.9393,29.3046 3.9877,15.675 7.3247,28.5519 7.4156,28.6154 0.091,0.063 12.0902,5.6345 26.6652,12.3801 14.575,6.7457 43.15,20.3617 63.5,30.258 20.35,9.8963 51.4,24.9514 69,33.4559 17.6,8.5045 32.3149,15.7615 32.6997,16.1267 0.9859,0.9355 12.1568,78.7924 11.5369,80.4079 -0.5427,1.4144 -2.832,1.6979 -70.7366,8.7611 -57.6406,5.9955 -86.1296,8.6245 -141,13.0117 -27.775,2.2207 -95.95,7.8419 -151.5,12.4915 l -101,8.45393 -58.5,-7.97833 -58.5,-7.9783 -39.6204,-1.5629 c -21.7912,-0.8596 -41.7146,-1.4233 -44.2743,-1.2528 l -4.654,0.3101 16.4766,27.96453 c 9.062,15.3804 16.3855,28.0452 16.2743,28.1439 -0.1112,0.099 -14.8272,3.5786 -32.7022,7.7332 -17.875,4.1545 -74.575,15.9054 -126,26.113 -51.425,10.2076 -102.725,20.8181 -114,23.5788 -50.4596,12.3554 -60.2806,15.4378 -110.3273,34.6277 -26.305,10.0864 -49.03,18.3265 -50.5,18.3112 -1.47,-0.015 -12.1227,-2.4593 -23.6727,-5.4313 z m -292,-522.66953 c -90.82491,-4.4411 -126.24311,-6.7706 -151,-9.9315 -8.8,-1.1235 -67.525,-9.4651 -130.5,-18.5369 -146.71414,-21.1348 -169.02981,-24.3097 -217.45104,-30.9371 -21.97308,-3.0074 -40.27572,-5.8051 -40.67255,-6.217 -1.44709,-1.5022 -26.64907,-40.7584 -26.36495,-41.0678 0.16101,-0.1753 25.4243,0.6024 56.14064,1.7281 108.20306,3.9658 150.86535,5.0414 420.3479,10.5978 41.525,0.8562 79.1213,1.8001 83.54733,2.0977 l 8.04733,0.541 10.77472,44.6771 c 5.92609,24.5724 10.99762,45.4646 11.27006,46.4271 0.5622,1.9862 2.66452,1.9321 -24.13944,0.6215 z m 436.8747,-40.1573 -112.1253,-40.2142 9.6253,-0.7164 c 5.2939,-0.394 40.6753,-1.432 78.6253,-2.3067 67.247,-1.5499 112.7828,-2.9355 195.5,-5.949 62.5569,-2.279 113.6989,-3.6284 145.4352,-3.8374 l 28.9351,-0.1905 10.9441,18.7874 c 6.0192,10.3331 10.77,18.9615 10.5573,19.1743 -0.2815,0.2814 -239.207,52.2052 -253.3717,55.0632 -1.1,0.2219 -52.4564,-17.6929 -114.1253,-39.8107 z M 86.9062,533.33777 c -8.8,-2.1357 -31.525,-7.0674 -50.5,-10.9592 -18.975,-3.8918 -37.17479,-7.6975 -40.44398,-8.4572 -5.1496,-1.1965 -20.08859,-1.0428 -111.78204,1.1501 l -105.83807,2.5313 -76.90304,-22.8247 -76.90305,-22.8247 15.18509,-0.6468 c 21.44813,-0.9137 90.05364,-2.758 144.18509,-3.8761 25.3,-0.5226 93.925,-0.9455 152.5,-0.9397 l 106.5,0.011 7.9124,14.2261 c 12.7671,22.9545 18.3026,31.3496 23.9603,36.3378 2.902,2.5586 10.8146,8.1927 17.5835,12.5201 6.7688,4.3275 11.9102,7.8158 11.4254,7.7518 -0.4849,-0.064 -8.0816,-1.8636 -16.8816,-3.9993 z m 424,-47.0423 c -8.25,-0.9407 -86.1,-9.6265 -173,-19.302 -150.9071,-16.8019 -286.4714,-32.3647 -413.5,-47.47 l -58.5,-6.9563 -77.5,-25.9783 c -46.73437,-15.6656 -76.19437,-26.0096 -74.21105,-26.0569 4.68224,-0.1119 234.13555,18.2987 273.71105,21.9617 72.7586,6.7342 159.8513,17.0301 317.084,37.4849 23.1461,3.0111 43.1711,5.466 44.5,5.4551 1.3288,-0.011 -8.159,-4.4479 -21.084,-9.8603 -12.925,-5.4124 -27.55,-11.6453 -32.5,-13.8508 -14.1472,-6.3034 -53.7326,-24.9634 -79.75,-37.5929 l -23.75,-11.5289 0,-8.6807 c 0,-6.5601 0.3054,-8.5514 1.25,-8.1516 15.5604,6.5867 134.7944,54.5081 176.25,70.8368 30.8,12.1316 61.3896,24.3061 67.977,27.0544 10.435,4.3537 14.0169,5.3023 27.8228,7.3688 8.7152,1.3045 23.7726,3.9883 33.4608,5.964 12.1029,2.4682 18.0247,4.1193 18.9245,5.2766 0.7202,0.9263 2.6671,4.3843 4.3264,7.6843 3.8887,7.7339 5.5952,16.7297 4.3961,23.1745 l -0.9076,4.8779 -15,-1.7103 z m -802.16667,-126.5088 c 0.36667,-0.3666 0.96667,-0.3666 1.33334,0 0.36666,0.3667 0.0667,0.6667 -0.66667,0.6667 -0.73333,0 -1.03333,-0.3 -0.66667,-0.6667 z m -288.83333,-28.3659 c -79.60295,-4.2131 -131.66083,-5.7637 -222.30541,-6.6218 l -71.30541,-0.6751 -1.5271,-3.5852 c -7.37287,-17.3098 -17.46971,-43.311 -17.00072,-43.78 0.87755,-0.8775 49.40702,-4.0422 81.13864,-5.2911 99.80954,-3.9283 168.92141,-5.2847 300.16735,-5.8911 74.34205,-0.3434 135.52082,-0.9779 135.95284,-1.41 0.43202,-0.432 -6.83832,-8.4192 -16.15632,-17.7493 -9.31799,-9.3301 -16.56393,-16.9638 -16.10209,-16.9638 0.46184,0 33.53188,4.2609 73.48897,9.4687 39.95709,5.2077 96.04925,12.4189 124.64925,16.0247 59.07262,7.4478 89.63376,11.6871 130.5,18.1025 75.46746,11.8472 129.822,21.7495 169.75,30.9251 2.1178,0.4867 2.25,1.0199 2.25,9.0775 l 0,8.5604 -2.75,-0.5581 c -6.4096,-1.3007 -155.64552,-20.0466 -195.25,-24.5257 -60.84413,-6.8813 -123.27384,-12.598 -158.5,-14.5139 -38.06903,-2.0704 -94.35148,-4.0431 -95.06272,-3.3318 -0.32884,0.3288 2.62438,5.4006 6.56272,11.2706 3.93834,5.87 7.01198,10.8076 6.83031,10.9725 -0.18167,0.1649 -7.98031,1.2889 -17.33031,2.4978 -19.24634,2.4885 -49.13443,7.36 -76.65525,12.4943 -38.68529,7.2171 -100.58287,17.53 -104.38851,17.3924 -2.17593,-0.079 -18.80624,-0.929 -36.95624,-1.8896 z m 545.5,-98.5671 c -27.57175,-6.1624 -102.60935,-20.9051 -129,-25.3446 -63.31833,-10.6516 -122.41668,-18.8325 -191.93517,-26.5692 l -32.43517,-3.6097 -8.56483,-6.5989 c -4.71066,-3.6294 -8.94146,-6.9259 -9.40179,-7.3254 -0.46034,-0.3995 1.11466,-0.5443 3.5,-0.3216 2.38533,0.2227 15.36196,1.3062 28.83696,2.4078 55.90754,4.5705 114.24918,11.2187 171.15676,19.5038 59.37574,8.6444 95.77482,15.3477 155.05104,28.5546 l 23.7078,5.2821 0.96393,4.5604 c 2.45871,11.6322 2.47636,12.0695 0.48176,11.934 -1.02371,-0.07 -6.58629,-1.1826 -12.36129,-2.4733 z m -476.5,-122.0374 c -15.18278,-2.3784 -100.3211,-14.0898 -151.5,-20.84 -99.14895,-13.077 -151.58928,-18.6328 -269.48101,-28.5501 -13.73956,-1.1558 -25.06412,-2.185 -25.16569,-2.2871 -0.40278,-0.405 -5.3533,-26.81888 -5.3533,-28.56305 0,-1.02535 1.417,-5.07241 3.14889,-8.99346 3.07857,-6.96997 3.23078,-7.12919 6.81516,-7.12919 4.65756,0 48.53851,4.22094 78.53595,7.55444 47.02434,5.22562 73.36327,9.28499 145.5,22.42456 23.925,4.3578 59.025,10.6659 78,14.0179 18.975,3.3519 54.075,9.706 78,14.12 23.925,4.4141 46.425,8.56 50,9.2132 6.4303,1.1749 6.52973,1.243 9.2722,6.3516 2.71222,5.0523 11.87453,24.4293 11.44505,24.2047 -0.11949,-0.062 -4.26725,-0.7481 -9.21725,-1.5235 z m -153.5,-118.90108 c -92.06522,-23.69597 -174.13964,-39.69814 -273.86853,-53.39657 l -29.36852,-4.03396 -5.28434,-4.26565 c -3.03837,-2.45264 -5.50061,-5.3282 -5.79317,-6.76564 -0.27986,-1.375 -0.3968,-2.61427 -0.25986,-2.75394 0.4273,-0.43584 55.6545,6.61526 80.95514,10.3359 34.47256,5.06944 80.85522,12.8741 104.11928,17.51981 42.95164,8.57723 111.97179,24.75512 138.84545,32.54451 9.32661,2.70333 10.32789,3.26829 19,10.72037 11.83405,10.16919 11.30844,9.64593 9.60455,9.56149 -0.7975,-0.0395 -17.875,-4.29937 -37.95,-9.46632 z"
         id="path3408"
         inkscape:connector-curvature="0" />
    </g>
  </g>
</svg>
