<?xml version="1.0" encoding="UTF-8" standalone="no"?>
<!-- Created with Inkscape (http://www.inkscape.org/) -->

<svg
   xmlns:dc="http://purl.org/dc/elements/1.1/"
   xmlns:cc="http://creativecommons.org/ns#"
   xmlns:rdf="http://www.w3.org/1999/02/22-rdf-syntax-ns#"
   xmlns:svg="http://www.w3.org/2000/svg"
   xmlns="http://www.w3.org/2000/svg"
   xmlns:sodipodi="http://sodipodi.sourceforge.net/DTD/sodipodi-0.dtd"
   xmlns:inkscape="http://www.inkscape.org/namespaces/inkscape"
   width="49.977802mm"
   height="49.953335mm"
   viewBox="0 0 177.0867 177"
   id="svg2"
   version="1.1"
   inkscape:version="0.91 r13725"
   sodipodi:docname="Logo.svg">
  <defs
     id="defs4" />
  <sodipodi:namedview
     id="base"
     pagecolor="#ffffff"
     bordercolor="#666666"
     borderopacity="1.0"
     inkscape:pageopacity="0.0"
     inkscape:pageshadow="2"
     inkscape:zoom="5.6"
     inkscape:cx="72.071137"
     inkscape:cy="88.703435"
     inkscape:document-units="px"
     inkscape:current-layer="layer1"
     showgrid="false"
     inkscape:window-width="1855"
     inkscape:window-height="951"
     inkscape:window-x="65"
     inkscape:window-y="24"
     inkscape:window-maximized="1"
     fit-margin-top="0"
     fit-margin-left="0"
     fit-margin-right="0"
     fit-margin-bottom="0" />
  <metadata
     id="metadata7">
    <rdf:RDF>
      <cc:Work
         rdf:about="">
        <dc:format>image/svg+xml</dc:format>
        <dc:type
           rdf:resource="http://purl.org/dc/dcmitype/StillImage" />
        <dc:title />
      </cc:Work>
    </rdf:RDF>
  </metadata>
  <g
     inkscape:label="Layer 1"
     inkscape:groupmode="layer"
     id="layer1"
     transform="translate(-29.384371,-22.105603)">
    <circle
       style="fill:#ffffff;fill-rule:evenodd;stroke:none;stroke-width:0.95187432px;stroke-linecap:butt;stroke-linejoin:miter;stroke-opacity:1;fill-opacity:1"
       id="path3345"
       cx="118.13437"
       cy="110.17704"
       r="66.63121" />
    <g
       id="g3363"
       transform="matrix(0.18495298,0,0,0.18495298,-151.25226,22.017824)">
      <path
         style="fill:#bf002a"
         d="m 1425.9014,955.89515 c -35.9164,-5.64715 -73.8296,-19.88108 -121.2727,-45.53 -8.375,-4.52776 -26.0273,-14.38097 -39.2273,-21.89602 -30.6483,-17.44872 -50.1158,-27.98233 -61.2077,-33.11858 -13.4964,-6.24971 -27.8172,-11.7004 -38.2923,-14.5745 l -9.5,-2.60656 -15.75,-0.45222 -15.75,-0.45223 0,-0.64948 c 0,-0.35722 19.728,-20.3737 43.8401,-44.48108 l 43.8401,-43.83159 -12.9937,-12.91415 c -7.1465,-7.10278 -13.2602,-12.91414 -13.5859,-12.91414 -0.3257,0 -20.2139,19.61789 -44.196,43.59532 l -43.6037,43.59532 -0.577,-14.34532 -0.577,-14.34532 -2.4578,-9.5 c -1.3518,-5.225 -4.1118,-14 -6.1334,-19.5 l -3.6756,-10 -9.3864,-19 -9.3864,-19 -15.1338,-26.5 c -31.2988,-54.80568 -44.4387,-80.60705 -55.50141,-108.98238 -8.88357,-22.7859 -14.88525,-45.83131 -17.44646,-66.99139 l -1.02566,-8.47376 0,-13.72502 0,-13.72502 1.54503,-11.80121 c 0.84977,-6.49067 2.65835,-16.75122 4.01908,-22.80122 l 2.47404,-11 5.41321,-16.05398 c 2.97726,-8.82968 7.7428,-21.42968 10.59007,-28 8.4721,-19.55 23.7312,-48.84982 43.9787,-84.44602 21.5108,-37.81719 35.5854,-65.09012 42.3174,-82 l 4.5782,-11.5 2.5991,-10.5 2.5992,-10.5 0.5934,-14.34532 0.5935,-14.34532 43.6569,43.64847 43.6569,43.64847 13.1966,-13.29498 13.1966,-13.29499 -43.5993,-43.60772 -43.5993,-43.60772 14.3454,-0.59343 14.3453,-0.59343 10.5,-2.59916 10.5,-2.59917 11.5,-4.57822 c 16.9099,-6.73192 44.1828,-20.806537 82,-42.31736 35.5962,-20.247498 64.896,-35.506562 84.446,-43.978675 6.5703,-2.847284 19.1703,-7.612824 28,-10.590088 l 16.054,-5.413208 11,-2.4740421 c 6.05,-1.3607231 16.3105,-3.1693065 22.8012,-4.0190742 l 11.8012,-1.54503206 13.725,0 13.725,0 8.4738,1.02566266 c 21.1361,2.5583095 44.206,8.5630907 66.918,17.4178527 28.1158,10.961524 50.9369,22.534784 104.5558,53.023211 l 31,17.627032 19,9.393188 19,9.393183 10,3.67563 c 5.5,2.0216 14.275,4.78161 19.5,6.13337 l 9.5,2.45775 14.3453,0.577 14.3452,0.57701 -43.0952,43.10382 c -23.7025,23.7071 -43.0953,43.35133 -43.0953,43.65384 0,0.30252 5.8189,6.40859 12.931,13.56904 l 12.9309,13.01901 43.3147,-43.3233 c 23.8231,-23.82782 43.607,-43.3233 43.9643,-43.3233 l 0.6495,0 0.4522,15.75 0.4523,15.75 2.6395,9.7124 c 5.8391,21.48529 18.3827,48.02806 43.3773,91.7876 36.1242,63.24462 49.0046,89.39869 60.0828,122 5.7888,17.03541 9.4767,32.06697 11.7759,47.99748 l 1.6594,11.49748 -0.5131,22.00252 -0.513,22.00252 -2.6447,12.5 c -3.6804,17.3958 -8.6139,33.62502 -15.7756,51.89583 l -6.1164,15.60417 -11.7936,23.5 -11.7937,23.5 -19.0794,33.5 -19.0795,33.5 -10.4045,21 -10.4045,21 -3.4776,9.5 c -1.9127,5.225 -4.4672,13.1 -5.6767,17.5 l -2.199,8 -0.4987,15.75 -0.4988,15.75 -0.6263,0 c -0.3445,0 -20.2447,-19.61458 -44.2227,-43.58796 l -43.5964,-43.58797 -13.2779,13.21366 -13.2779,13.21366 43.6201,43.62852 c 23.991,23.99568 43.6201,43.91036 43.6201,44.25483 l 0,0.62631 -15.75,0.49875 -15.75,0.49875 -8,2.19902 c -4.4,1.20946 -12.275,3.76394 -17.5,5.67662 l -9.5,3.47759 -21,10.40455 -21,10.40454 -33.5,19.07943 -33.5,19.07942 -23.5,11.79366 -23.5,11.79366 -15.6042,6.11643 c -18.2386,7.14907 -34.4595,12.0829 -51.8958,15.78488 l -12.5,2.65393 -24,0.34598 -24,0.34598 -9.5,-1.49369 z m 18.5448,-57.51078 2.492,-2.4921 0.9202,-5.6537 c 0.5061,-3.10953 1.0147,-9.841 1.1302,-14.95883 l 0.2101,-9.30514 -3.5008,-0.30155 -3.5008,-0.30155 -0.6479,6.19824 c -0.3563,3.40903 -0.6478,8.81106 -0.6478,12.0045 l 0,5.80625 -1.1255,2.47014 -1.1255,2.47014 -2.295,0.57602 -2.2951,0.57603 -1.8295,-0.65111 c -1.0062,-0.35811 -2.637,-1.34563 -3.6241,-2.19449 l -1.7946,-1.54338 0.6901,-13.30462 0.6901,-13.30462 -3.5385,0 -3.5384,0 -0.607,1.58179 c -0.3339,0.86998 -0.607,7.51985 -0.607,14.77749 l 0,13.19571 1.6283,2.32472 1.6283,2.32473 3.1217,1.41283 3.1217,1.41282 6.2763,-0.31412 6.2764,-0.31411 2.4921,-2.49209 z m 40.2051,0.42763 c 1.4446,-1.07854 3.5543,-3.20367 4.6883,-4.72252 l 2.0618,-2.76154 0,-7.67667 0,-7.67667 -2,-3.39547 c -1.1,-1.86751 -3.2714,-4.34251 -4.8253,-5.5 l -2.8253,-2.10453 -10.124,0.28259 c -5.5682,0.15543 -10.3148,0.47345 -10.5481,0.70671 -0.2332,0.23326 -0.093,8.37631 0.3121,18.09567 l 0.7362,17.67156 9.9489,-0.47907 9.9489,-0.47907 2.6265,-1.96099 z m -15.1249,-7.4624 c -0.3438,-1.71875 -0.625,-6.89375 -0.625,-11.5 l 0,-8.375 4.5657,0 4.5658,0 1.829,0.97889 1.8291,0.97889 1.1052,3.17033 1.1052,3.17034 0,4.41651 0,4.41652 -1.1497,2.18426 c -0.6324,1.20134 -1.6449,2.51487 -2.25,2.91895 -0.6052,0.40408 -3.1816,0.74158 -5.7253,0.75 l -4.625,0.0153 -0.625,-3.125 z m -61.988,6.375 c -0.2737,-0.9625 -2.1632,-9.175 -4.1988,-18.25 l -3.7012,-16.5 -1.5596,-1.25 -1.5597,-1.25 -2.6941,0 -2.6942,0 -9.4902,16.25 -9.4902,16.25 1.1255,0.73469 c 0.619,0.40408 2.3782,0.74158 3.9092,0.75 l 2.7837,0.0153 2.0651,-3.5 c 1.1358,-1.925 2.3212,-3.5 2.6343,-3.5 0.3132,0 3.375,0.48858 6.8041,1.08574 l 6.2348,1.08574 1.0956,4.35078 1.0955,4.35079 3.2516,0.40344 c 1.7884,0.22189 3.6194,0.47545 4.069,0.56347 l 0.8174,0.16005 -0.4978,-1.75 z m -17.887,-15.93933 c -0.9625,-0.25152 -1.7424,-0.76182 -1.733,-1.13399 0.01,-0.37218 1.2972,-2.85089 2.8617,-5.50825 l 2.8447,-4.83157 0.5578,1.45372 c 0.3069,0.79955 0.8702,3.53625 1.2519,6.08157 l 0.694,4.62785 -2.3636,-0.116 c -1.2999,-0.0638 -3.151,-0.3218 -4.1135,-0.57333 z m 131.75,14.84771 11,-1.71212 0.3346,-2.33847 0.3347,-2.33846 -0.9161,-0.91615 -0.9162,-0.91614 -9.3538,1.51286 c -5.1446,0.83208 -9.4498,1.40875 -9.5672,1.28148 -0.1173,-0.12726 -0.3714,-2.24467 -0.5647,-4.70535 l -0.3513,-4.47397 8.3325,-1.19195 c 4.583,-0.65557 8.5424,-1.40168 8.7987,-1.65803 0.2564,-0.25634 0.1579,-1.69402 -0.2188,-3.19484 l -0.6849,-2.72876 -5.1137,0.65872 c -2.8126,0.36229 -6.7357,0.90915 -8.7179,1.21524 l -3.6041,0.55652 -0.6577,-3.28821 -0.6576,-3.2882 1.1342,-0.70096 c 0.6238,-0.38553 3.8915,-1.00541 7.2617,-1.37751 3.3702,-0.3721 7.1401,-0.92277 8.3776,-1.22372 l 2.25,-0.54718 0,-2.33257 0,-2.33258 -1.0564,-0.65286 -1.0563,-0.65286 -12.4437,1.79446 -12.4436,1.79445 0,1.65355 c 0,1.78389 3.6651,26.67066 4.5942,31.19523 l 0.5647,2.75 2.1705,-0.0648 c 1.1938,-0.0356 7.1206,-0.8352 13.1706,-1.77687 z m 29.6271,-5.9862 c 0.3448,-0.3697 1.4173,-3.14718 2.3831,-6.17218 0.9658,-3.025 1.9621,-5.86078 2.2139,-6.30173 l 0.4579,-0.80173 4.9891,4.66673 4.9891,4.66673 4.1323,-0.66079 c 2.2728,-0.36344 4.3131,-0.84146 4.5339,-1.06228 0.3717,-0.37172 -8.6898,-9.11914 -13.6957,-13.22102 l -2.1795,-1.78591 3.1331,-9.3079 c 1.7233,-5.11935 2.9052,-9.53587 2.6266,-9.81448 -0.2786,-0.27862 -2.1235,-0.20325 -4.0997,0.16749 l -3.5932,0.67408 -1.081,4.01475 c -0.5946,2.20811 -1.517,5.16132 -2.0498,6.56268 l -0.9687,2.54793 -4.7093,-4.63257 -4.7092,-4.63258 -4.3289,1.10195 -4.3288,1.10194 7.5868,7.10836 7.5867,7.10835 -2.8773,8 c -1.5825,4.4 -3.2102,9.0718 -3.6171,10.38178 l -0.7399,2.38178 3.8593,-0.7096 c 2.1225,-0.39027 4.1414,-1.01207 4.4863,-1.38178 z m -203.2211,-6.92218 c 0.5408,-2.0625 1.2886,-5.01434 1.6619,-6.55964 l 0.6788,-2.80965 1.6143,0.61947 c 0.8879,0.3407 4.36,0.87586 7.7158,1.18923 l 6.1015,0.56977 3.2592,-2.91203 3.2591,-2.91203 0.5088,-4.5136 0.5087,-4.5136 -2.6028,-3.09326 -2.6028,-3.09327 -8.2543,-2.17561 c -4.5398,-1.19659 -8.9854,-2.38384 -9.8789,-2.63833 l -1.6248,-0.4627 -4.2599,17.09295 -4.26,17.09296 0.8847,0.8376 c 0.7601,0.71963 3.0335,1.49791 5.5961,1.91574 0.3913,0.0638 1.1539,-1.5715 1.6946,-3.634 z m 5.7832,-14.95103 -1.8108,-0.46903 0.6905,-3.16497 c 0.3798,-1.74073 0.9697,-3.91271 1.3108,-4.82662 l 0.6203,-1.66164 5,1.66164 5,1.66165 0.3267,2.30504 0.3268,2.30504 -1.1992,1.44496 -1.1992,1.44496 -3.6276,-0.116 c -1.9951,-0.0638 -4.4424,-0.32707 -5.4383,-0.58503 z m 139.8108,-42.26055 c 32.5597,-3.85198 63.4245,-11.55283 93,-23.20372 11.6173,-4.57652 40.8449,-18.94739 44.5,-21.88012 l 2.5,-2.00596 -2.5,0.48891 c -4.045,0.79104 -20.8758,2.34443 -65,5.99914 l -41.5,3.43736 -13,-1.82222 c -7.15,-1.00221 -18.5871,-2.15307 -25.4156,-2.55746 l -12.4156,-0.73526 2.831,4.87046 c 1.5571,2.67875 3.4804,5.87837 4.274,7.11026 l 1.4428,2.23982 -1.3583,0.4415 c -2.7876,0.90607 -20.0113,4.57091 -40.3583,8.58738 -24.0453,4.7465 -38.4802,8.20203 -46.7984,11.20292 l -5.7984,2.09183 0.7984,0.73865 c 1.1119,1.02868 17.6399,3.67301 30.7984,4.92744 6.05,0.57676 12.8,1.22595 15,1.44264 2.2,0.21669 14.35,0.23585 27,0.0426 l 23,-0.3514 9,-1.06475 z m -163.1209,-34.0313 17.1588,-4.99288 54.1348,-5.95986 54.1348,-5.95987 3.3462,0.53164 3.3463,0.53165 60,-7.64786 c 51.0879,-6.51189 92.8285,-11.39387 98.5,-11.52056 l 1.5,-0.0335 -5.3297,-3.10649 c -2.9313,-1.70856 -11.0313,-5.58373 -18,-8.61148 l -12.6703,-5.50499 -3.0491,0.0955 c -1.677,0.0525 -21.5515,2.57128 -44.1656,5.59718 l -41.1165,5.50165 -23.3344,-8.03166 -23.3344,-8.03165 -17,0.27996 c -15.4005,0.25361 -167.7652,-0.22198 -168.171,-0.52493 -0.2293,-0.17116 3.6297,-18.9357 3.933,-19.12461 0.6356,-0.39584 197.0379,-10.52776 197.3832,-10.18252 0.2192,0.21925 1.3416,4.85127 2.4941,10.29338 1.1525,5.44211 2.3801,10.1824 2.7281,10.53396 l 0.6326,0.63922 25,-1.88339 c 25.8222,-1.94533 52.4588,-4.52049 53.0688,-5.13058 0.1914,-0.19137 -8.1833,-4.59469 -18.6104,-9.78516 l -18.9584,-9.4372 0,-2.87802 0,-2.87803 1.25,0.52448 c 0.6875,0.28846 12.725,5.57204 26.75,11.74128 l 25.5,11.21682 9.3045,0.75352 c 5.1174,0.41444 9.4422,0.91651 9.6107,1.1157 0.1684,0.1992 1.0883,3.60848 2.0444,7.57618 l 1.7382,7.214 2.1374,0.67838 c 1.1755,0.37311 12.0971,5.50356 24.2701,11.40099 l 22.1328,10.7226 0.7298,6.81524 c 0.4014,3.74839 1.0386,7.64993 1.416,8.6701 l 0.6862,1.85486 10.4649,-7.16803 c 51.4172,-35.21856 91.9148,-81.84609 118.4698,-136.40214 17.6722,-36.30665 28.5521,-73.82641 33.6373,-116 l 1.3264,-11 0.01,-26.5 0,-26.5 -1.2918,-10.5 c -3.4478,-28.02036 -8.7234,-51.85135 -16.7326,-75.58245 -15.5699,-46.13338 -40.0505,-87.23044 -74.7085,-125.41755 l -9.5296,-10.5 -11.358,-10.18065 c -14.1843,-12.71395 -25.1152,-21.28239 -39.858,-31.24371 -15.9158,-10.75381 -28.8292,-18.18159 -45.3782,-26.10154 -33.617,-16.0882 -69.1283,-26.47639 -108.1218,-31.62911 l -13,-1.71786 -28.5,-0.0636 -28.5,-0.0636 -11,1.3421 c -14.3409,1.74973 -35.4446,5.61042 -48,8.7811 -29.2416,7.38451 -60.0621,19.8485 -87,35.18337 -13.7304,7.81622 -32.6817,20.81029 -46.6133,31.96067 l -13.3867,10.71432 -13.5429,13.50925 -13.543,13.50926 -9.2125,11.32133 c -28.7108,35.2826 -49.7902,73.52608 -63.0782,114.44006 -2.1862,6.73124 -5.1113,16.73861 -6.5002,22.23861 -3.1707,12.5554 -7.0314,33.65908 -8.7811,48 l -1.3421,11 0.1131,29.5 0.1131,29.5 0.9029,4.43151 0.9028,4.4315 12.4841,1.79456 c 16.7535,2.4083 31.5603,5.25758 48.8364,9.39765 l 14.3525,3.43944 2.9743,2.50267 2.9742,2.50267 -1.1276,0 c -0.6201,0 -7.2922,-1.53859 -14.8267,-3.41909 -7.5345,-1.8805 -19.5491,-4.57989 -26.6991,-5.99866 -14.5801,-2.89309 -37.816,-6.56074 -38.3474,-6.05287 -0.191,0.1826 0.2092,4.40457 0.8894,9.38215 l 1.2368,9.05015 3.1106,0.46302 c 1.7108,0.25466 9.1856,1.1703 16.6106,2.03477 l 13.5,1.57174 36.4916,6.55934 c 20.0704,3.60763 36.5087,6.6381 36.5296,6.73439 0.021,0.0963 0.8305,1.91606 1.7989,4.04395 l 1.7609,3.86889 -3.2905,-0.602 c -1.8098,-0.3311 -14.9905,-2.1683 -29.2905,-4.08268 -23.7192,-3.17533 -42.2039,-5.24558 -65.6834,-7.35638 l -8.6834,-0.78063 0.5665,3.04195 c 1.056,5.67 9.113,32.99751 12.1005,41.04196 l 2.971,8 4.8644,-0.149 c 2.6754,-0.082 30.2015,-0.48979 61.1692,-0.90631 l 56.3048,-0.7573 -4.263,-4.34369 -4.263,-4.3437 1.2675,0 c 0.6972,0 17.1034,2.03173 36.4582,4.51495 33.438,4.29008 70.7292,10.05019 82.6907,12.77264 l 5.5,1.25181 0.3195,2.2303 0.3196,2.2303 -1.584,0 c -0.8712,0 -12.04,-1.32293 -24.8196,-2.93984 -34.19,-4.32583 -52.2699,-6.05585 -70.6143,-6.75689 l -16.3787,-0.62593 1.7168,2.62018 1.7168,2.62018 -2.3381,0.49055 c -1.2859,0.26981 -12.1433,2.14188 -24.1275,4.16015 l -21.7896,3.66959 -28.2104,-1.12229 c -15.5158,-0.61727 -32.6283,-1.12082 -38.0279,-1.119 l -9.8174,0.003 0.6871,2.25 c 1.1304,3.7011 11.9415,24.53064 18.3502,35.35489 l 5.9829,10.10489 17.3073,0.64902 c 9.519,0.35697 39.5823,1.14431 66.8073,1.74965 27.225,0.60534 49.6804,1.27155 49.901,1.48046 0.5827,0.55187 5.8599,22.84398 5.5089,23.2707 -0.1627,0.19779 -9.3162,-0.15409 -20.3411,-0.78195 l -20.0453,-1.14157 -44.6722,-6.47431 c -24.5697,-3.56087 -44.8689,-6.27759 -45.1093,-6.03716 -0.5374,0.53747 10.1123,14.75426 17.6603,23.57538 17.8365,20.84507 32.9312,35.36483 53.3903,51.35698 11.0956,8.67306 30.3444,21.51138 43.5282,29.03194 9.376,5.34844 26.0497,13.61108 27.4667,13.61108 0.513,0 8.6542,-2.2468 18.0916,-4.99288 z m 72.8533,-108.32075 -28.2676,-10.18637 14.7676,-0.67642 c 23.5442,-1.07843 80.8825,-2.85115 91.2676,-2.8217 l 9.5,0.0269 2.71,4.91452 2.71,4.91453 -6.71,1.50185 c -3.6905,0.82601 -17.51,3.812 -30.71,6.63553 -13.2,2.82352 -24.675,5.30104 -25.5,5.50559 l -1.5,0.3719 -28.2676,-10.18637 z m -46.7132,-14.72416 -12.9808,-2.82826 -26.5192,0.58176 -26.5192,0.58175 -18,-5.28465 c -9.9,-2.90656 -18.6015,-5.60071 -19.3367,-5.98701 l -1.3367,-0.70235 21.2479,-0.66173 c 11.6864,-0.36394 35.2999,-0.66172 52.4745,-0.66172 l 31.2266,0 3.3971,5.72571 3.397,5.72572 4.2929,3.27428 4.2929,3.27429 -1.3278,-0.10477 c -0.7302,-0.0576 -7.1691,-1.37748 -14.3085,-2.93302 z m 92.4808,-12.03911 c -13.475,-1.57118 -48.8,-5.58454 -78.5,-8.91857 l -54,-6.06189 -21.8328,-7.05518 c -12.0081,-3.88035 -21.6831,-7.17349 -21.5,-7.31808 0.4047,-0.31969 36.9323,2.57682 68.3328,5.41854 12.65,1.14482 37.1025,3.86587 54.3389,6.04678 17.2364,2.18092 32.0864,3.94917 33,3.92945 l 1.6611,-0.0358 -6.5,-2.83358 c -3.575,-1.55846 -11.7875,-5.33613 -18.25,-8.39481 l -11.75,-5.56124 0,-2.4709 0,-2.4709 32.1771,12.88948 32.1772,12.88949 3.5728,0.58201 c 1.9651,0.32011 5.8717,1.01922 8.6813,1.55358 l 5.1084,0.97157 1.1416,2.50555 c 0.6279,1.37806 1.1416,3.60938 1.1416,4.9585 l 0,2.45295 -2.25,-0.11011 c -1.2375,-0.0606 -13.275,-1.39561 -26.75,-2.96679 z m -17,-13.4231 c 0,-0.275 -0.225,-0.5 -0.5,-0.5 -0.275,0 -0.5,0.225 -0.5,0.5 0,0.275 0.225,0.5 0.5,0.5 0.275,0 0.5,-0.225 0.5,-0.5 z m -101,-48.62573 c -13.0905,-3.01408 -41.3415,-7.66322 -62.5369,-10.29142 l -19.1584,-2.37561 -2.1524,-1.34417 c -1.1838,-0.73929 -2.1523,-1.72814 -2.1523,-2.19745 l 0,-0.8533 4.75,0.56943 c 2.6125,0.31318 9.925,1.06298 16.25,1.66622 23.7256,2.26279 64.9182,9.06945 72.6295,12.00129 l 2.3705,0.90124 0,2.02475 0,2.02475 -0.75,-0.0843 c -0.4125,-0.0464 -4.575,-0.96501 -9.25,-2.04142 z m 199.9953,-77.59028 c -5.7724,-14.6439 -11.2753,-28.57349 -12.2286,-30.95463 l -1.7333,-4.32936 3.2333,4.9e-4 3.2333,4.8e-4 8.9871,22.96242 8.9871,22.96242 0.6071,-0.71291 c 0.3339,-0.39209 4.5351,-10.7254 9.3361,-22.9629 l 8.729,-22.25 2.9268,0 c 1.6097,0 2.9268,0.27018 2.9268,0.60041 0,0.94518 -23.2147,59.81695 -23.8979,60.60423 l -0.6114,0.70463 -10.4954,-26.62528 z m 121.4837,23.36066 c -2.2115,-0.71411 -5.2674,-2.11514 -6.791,-3.11338 l -2.77,-1.815 -2.709,-4.60813 -2.709,-4.60814 -0.3188,-22.25 -0.3187,-22.25 2.9988,0 2.9988,0 0.32,21.92944 0.3199,21.92944 2.0618,2.75877 c 1.1339,1.51733 3.2379,3.63691 4.6755,4.7102 l 2.6137,1.95142 4.8245,0.4219 4.8245,0.4219 3.5,-1.91315 3.5,-1.91314 2.25,-3.29627 2.25,-3.29628 0,-21.85211 0,-21.85212 3.0513,0 3.0514,0 -0.3014,23.40962 -0.3013,23.40962 -3.0894,3.84038 -3.0894,3.84038 -3.9106,2.16696 -3.9106,2.16696 -4.5,0.55456 -4.5,0.55456 -4.021,-1.29839 z m -302.8124,-0.31132 -0.6666,-0.66666 0,-12.46217 0,-12.46216 -4.9305,0.65405 -4.9305,0.65405 -10.9317,-1.03089 -10.9318,-1.0309 -7.7419,-1.98006 -7.742,-1.98006 -9.4973,-4.49893 -9.4974,-4.49893 -6.4719,-4.61829 c -3.5596,-2.54006 -9.382,-7.34044 -12.9386,-10.66752 l -6.4667,-6.04923 -6.0224,-7.99243 -6.0225,-7.99243 -4.3209,-8.60538 c -3.7495,-7.46742 -8.5539,-20.50405 -8.5539,-23.21073 l 0,-0.89466 7.3174,0 7.3173,0 1.8048,5.75 c 6.851,21.82706 26.0913,43.91882 47.7722,54.85199 l 6.7116,3.38456 8.7884,2.62849 8.7883,2.62849 14.25,0.50419 14.25,0.50418 0,-74.62595 0,-74.62595 7.5,0 7.5,0 0,73 c 0,40.15 0.1545,73 0.3434,73 0.1889,0 2.7784,-0.83775 5.7545,-1.86167 25.8876,-8.90664 49.087,-32.12644 58.0827,-58.13385 2.7545,-7.96362 3.8722,-13.36398 4.8309,-23.34153 l 0.849,-8.83705 -0.9432,-9.16295 -0.9433,-9.16295 -2.0514,-7.5 -2.0514,-7.5 -3.9965,-8 -3.9965,-8 -5.5748,-7.28893 -5.5749,-7.28893 -6.1143,-5.55251 c -3.3628,-3.05388 -9.4781,-7.76777 -13.5896,-10.4753 l -7.4754,-4.92279 -7.7821,-3.0011 c -4.2801,-1.6506 -11.0412,-3.73446 -15.0246,-4.6308 l -7.2425,-1.62971 -13.5,0.0245 -13.5,0.0245 -9.8036,2.57653 -9.8035,2.57653 -7.4142,3.56607 -7.4142,3.56607 -7.9806,6.01358 -7.9806,6.01357 -5.6112,6.20061 c -6.28,6.93963 -11.2502,14.09119 -15.0481,21.65266 l -2.5493,5.07545 -7.4473,0 -7.4474,0 0,-1.02196 c 0,-2.0755 5.9454,-14.04346 10.3885,-20.91181 l 4.5808,-7.08124 8.2337,-8.57636 8.2336,-8.57636 6.5317,-4.96343 6.5317,-4.96343 10.0235,-4.95284 10.0234,-4.95285 9.9766,-2.65661 9.9765,-2.65661 18,0 18,0 9.7058,2.58794 9.7058,2.58794 8.5216,3.99338 8.5217,3.99338 7.4436,5.14577 7.4436,5.14578 9.0522,9.35712 9.0522,9.35713 4.6333,7.16243 c 2.5484,3.93933 6.1283,10.39792 7.9553,14.3524 l 3.322,7.18998 2.1069,7.97013 2.1068,7.97012 1.1306,10.92567 1.1306,10.92567 -1.1703,11.22737 -1.1704,11.22737 -2.5614,8.84696 -2.5614,8.84696 -3.8183,7.6341 c -5.1359,10.2685 -10.4623,17.92565 -18.5052,26.60267 l -6.7078,7.23676 -8.1686,6.16247 -8.1686,6.16246 -9,4.39238 c -4.95,2.4158 -12.0375,5.31748 -15.75,6.44817 l -6.75,2.05579 0,7.4026 0,7.4026 41,0 41,0 0,6.5 0,6.5 -47.8334,0 -47.8333,0 -0.6667,-0.66667 z m 110.6019,-1.08333 c 0.3888,-1.35612 17.5044,-44.81745 22.9395,-58.25 l 1.0115,-2.5 2.3013,6 c 1.2657,3.3 6.7933,17.3625 12.2836,31.25 l 9.9823,25.25 -3.1433,-0.006 -3.1434,-0.007 -4.3409,-10.99365 -4.3408,-10.99365 -9.6592,0.006 -9.6591,0.006 -4.3409,10.99365 -4.3408,10.99435 -3.0258,0 -3.0258,0 0.5018,-1.75 z m 30.6678,-26.5 c -0.035,-0.6875 -1.5635,-5.075 -3.3966,-9.75 l -3.3329,-8.5 -0.9886,2.5 c -0.5438,1.375 -2.1653,5.39008 -3.6035,8.92241 -1.4381,3.53232 -2.6147,6.79482 -2.6147,7.25 l 0,0.82759 7,0 7,0 -0.064,-1.25 z m 84.3146,27.07344 c 18.0508,-45.83326 23.1041,-58.55663 23.6778,-59.61723 l 0.6998,-1.29378 11.9357,30.18654 c 6.5647,16.6026 12.0965,30.60441 12.2929,31.11513 l 0.3571,0.92859 -3.3323,-0.32134 -3.3324,-0.32135 -4.1021,-10.5 -4.1022,-10.5 -9.8916,0 -9.8916,0 -4.1019,10.5 -4.1018,10.5 -3.3143,0.32344 -3.3144,0.32344 0.5213,-1.32344 z m 31.7491,-26.12911 c 0,-0.47106 -7.157,-18.1532 -7.4887,-18.50159 -0.1609,-0.169 -1.6484,3.206 -3.3056,7.5 -1.6572,4.29399 -3.3295,8.59476 -3.7164,9.55726 l -0.7033,1.75 7.607,0 c 4.1838,0 7.607,-0.13755 7.607,-0.30567 z m 88,26.86546 c 0,-0.24211 4.446,-7.51771 9.8801,-16.168 l 9.8801,-15.7278 -3.2337,-5.08199 c -1.7785,-2.7951 -5.5526,-8.7945 -8.3869,-13.332 l -5.1533,-8.25 3.4172,0 3.4172,0 3.9332,6.25 c 2.1633,3.4375 5.1614,8.20545 6.6625,10.59544 l 2.7292,4.34544 6.6772,-10.59082 6.6772,-10.59082 3.2851,-0.005 3.2852,-0.005 -1.1645,2.17598 c -0.6405,1.19679 -4.291,7.08203 -8.1121,13.07831 l -6.9476,10.90234 0.5127,1.33606 c 0.282,0.73484 4.8239,8.15219 10.0932,16.48302 l 9.5804,15.14696 -3.6772,-0.31134 -3.6772,-0.31057 -7.879,-12.5 c -4.3335,-6.875 -8.1986,-12.6086 -8.589,-12.74134 -0.3905,-0.13273 -4.31,5.60118 -8.71,12.74202 l -8,12.98335 -3.25,0.008 c -1.7875,0.004 -3.25,-0.1901 -3.25,-0.43222 z m -43.8048,-70.62656 c -2.3676,-0.4662 -6.2716,-1.82994 -8.6756,-3.03052 l -4.3708,-2.18287 -4.4917,-4.60992 -4.4917,-4.60992 -2.2258,-4.33085 -2.2258,-4.33084 -0.1069,-3.54806 -0.1069,-3.54805 3.6753,-1.29289 3.6753,-1.2929 0.6494,3.84385 0.6494,3.84385 2.8772,4.53683 2.8772,4.53683 4.2022,3.04407 4.2022,3.04407 4.0959,1.10825 4.0959,1.10824 5.843,-0.52481 5.8431,-0.52481 4.6224,-2.85782 4.6224,-2.85782 3.2445,-4.25383 3.2445,-4.25382 1.0345,-3.72475 c 0.5689,-2.04861 1.0325,-5.97474 1.0302,-8.72474 l 0,-5 -2.3378,-5.02028 -2.3378,-5.02027 -5.0253,-4.47973 c -5.2772,-4.70422 -6.53,-5.42781 -20.3744,-11.76829 l -8.5948,-3.93627 -4.3121,-3.88758 -4.3121,-3.88758 -2.3333,-5 -2.3333,-5 0,-5.5 0,-5.5 2.3318,-5.00728 2.3317,-5.00728 3.8358,-3.36781 c 2.1096,-1.8523 5.3165,-3.98653 7.1263,-4.74273 l 3.2906,-1.3749 6.5643,0 6.5642,0 3.2906,1.3749 c 1.8098,0.7562 4.9719,2.8511 7.0268,4.65532 l 3.7362,3.28042 1.9687,3.85894 1.9687,3.85894 -2.2776,0.85221 c -1.2527,0.46871 -3.2901,1.16762 -4.5276,1.55313 l -2.25,0.70092 0,-1.16302 c 0,-0.63966 -0.968,-2.52242 -2.1511,-4.18392 l -2.1511,-3.0209 -4.0989,-1.86151 -4.0989,-1.86151 -3,0 -3,0 -4.099,1.86151 -4.0989,1.86151 -2.2525,3.16336 -2.2525,3.16335 -0.5218,3.88984 -0.5217,3.88983 0.6518,3.4743 0.6518,3.4743 3.961,3.96101 3.961,3.96101 5.2604,2.55848 c 2.8932,1.40717 8.4104,4.01498 12.2604,5.79513 l 7,3.23665 7.0858,7.0829 7.0859,7.0829 1.6828,4.9828 c 0.9255,2.74054 1.95,7.25688 2.2766,10.03631 l 0.594,5.0535 -1.5863,6.19198 -1.5863,6.19197 -2.4204,3.77172 c -3.2523,5.06807 -9.2488,10.64677 -14.1557,13.16922 l -4.0236,2.06838 -5.3629,1.01706 c -6.0727,1.15166 -7.8253,1.14539 -13.8947,-0.0497 z m -165.3469,-1.44929 -4.6518,-1.48715 -4.9662,-3.74839 c -6.2021,-4.68117 -9.4036,-8.47762 -12.9511,-15.35798 l -2.7792,-5.39042 -0.2974,-45.25 -0.2974,-45.25 4.5174,0 4.5175,0 0.2799,44.25 0.28,44.25 1.9666,4 1.9667,4 4.7593,4.66164 4.7593,4.66164 5.274,1.79851 5.2741,1.7985 6.2561,-0.0958 6.2562,-0.0958 5.4583,-2.67048 5.4583,-2.67048 3.9604,-4.49932 3.9605,-4.49932 1.785,-4.69453 1.785,-4.69453 0.3488,-42.75 0.3487,-42.75 3.9799,0 3.9798,0 -0.2885,45.25 -0.2885,45.25 -2.8451,5.79745 -2.8451,5.79745 -4.8541,4.85416 -4.8542,4.85416 -5.7674,2.82175 -5.7675,2.82174 -9.5333,0.26219 -9.5333,0.26219 -4.6517,-1.48715 z m 68.1517,-57.98394 0,-58.5 29.5,0 29.5,0 0,4.5 0,4.5 -25.5,0 -25.5,0 0,22.5 0,22.5 25.5,0 25.5,0 0,4.5 0,4.5 -25.5188,0 -25.5188,0 0.2688,22.75 0.2688,22.75 25.25,0.26717 25.25,0.26717 0,3.98283 0,3.98283 -29.5,0 -29.5,0 0,-58.5 z m 174,4.5 0,-54 -14.5,0 -14.5,0 0,-4.5 0,-4.5 33.5,0 33.5,0 0,4.5 0,4.5 -14.5,0 -14.5,0 0,54 0,54 -4.5,0 -4.5,0 0,-54 z m -572.5,9.03579 c -3.1223,-1.30736 -6.5877,-5.00134 -8.1102,-8.64529 -0.7644,-1.82945 -1.3898,-3.73612 -1.3898,-4.23706 0,-0.50094 1.3228,-1.45874 2.9396,-2.12844 l 2.9397,-1.21764 1.0603,0.65534 1.0604,0.65533 0,1.8302 0,1.8302 1.8711,2.31079 1.8712,2.31078 3.5791,0 3.5791,0 2.0497,-1.85499 2.0498,-1.85499 0,-3.84501 0,-3.84501 -1.9444,-1.9444 c -1.0694,-1.06942 -4.4816,-3.1447 -7.5827,-4.61172 l -5.6382,-2.66731 -1.9136,-3.13828 -1.9136,-3.13829 0,-3.76469 0,-3.76468 3.3068,-3.60844 3.3069,-3.60843 4.079,-0.10696 4.0789,-0.10695 2.6995,1.44471 2.6995,1.44472 1.4147,2.7357 c 0.778,1.50463 1.4147,3.16403 1.4147,3.68753 l 0,0.95184 -3.1622,1.10233 c -1.7392,0.60629 -3.2532,0.98781 -3.3645,0.84783 -0.1114,-0.13998 -0.7292,-1.26701 -1.3731,-2.50451 l -1.1706,-2.25 -2.4296,0 -2.4297,0 -1.0703,2 -1.0704,2 1.0916,2.03965 1.0916,2.03965 5.4422,2.57677 5.4422,2.57677 2.9521,3.3622 2.952,3.3622 0.6673,3.55675 0.6672,3.55675 -0.6098,3.04879 c -0.3353,1.67683 -1.5045,4.30544 -2.5982,5.84134 l -1.9885,2.79256 -3.4208,1.62328 -3.4208,1.62329 -3.8489,-0.0634 c -2.1163,-0.0349 -4.7483,-0.44022 -5.8483,-0.90081 z m 34.1666,0.29754 -0.6666,-0.66666 0,-23.96484 0,-23.96484 7.25,0.47342 7.25,0.47342 4.1242,2.11423 4.1242,2.11424 2.7773,3.29385 c 1.5276,1.81162 3.4322,4.85699 4.2327,6.7675 l 1.4553,3.47365 0.054,5.68826 0.054,5.68826 -2.7696,5.6609 -2.7696,5.6609 -3.9415,2.85519 -3.9415,2.85518 -4.9985,1.07201 c -5.6546,1.21269 -11.2411,1.39778 -12.2335,0.40533 z m 16.9106,-10.82442 3.2442,-2.4745 1.7195,-4.50235 1.7194,-4.50235 -0.6766,-4.23134 -0.6766,-4.23135 -2.5053,-3.28456 -2.5052,-3.28456 -2.8987,-1.49895 c -1.5942,-0.82442 -3.821,-1.49895 -4.9483,-1.49895 l -2.0496,0 0,16.625 0,16.625 3.1665,-0.6333 3.1665,-0.6333 3.2442,-2.47449 z m 28.4228,-13.00891 0,-24.5 3.5,0 3.5,0 0,24.5 0,24.5 -3.5,0 -3.5,0 0,-24.5 z m 28.2408,22.5054 -3.2591,-1.98712 -1.9871,-3.25914 -1.9871,-3.25914 0,-2.27475 0,-2.27475 2.5651,-0.97525 c 1.4113,-0.53639 2.8932,-0.97525 3.2937,-0.97525 0.4004,0 1.1586,1.42586 1.6849,3.16858 l 0.9568,3.16858 2.6629,1.96168 2.663,1.96167 2.5593,-0.64236 2.5594,-0.64236 2.0277,-2.17646 2.0277,-2.17645 0,-2.58894 0,-2.58893 -1.5721,-2.24452 -1.5722,-2.24451 -5.6778,-2.87776 -5.6779,-2.87775 -2.5,-2.6808 -2.5,-2.6808 0,-4.3461 0,-4.34611 2.0906,-2.82333 2.0906,-2.82333 3.993,-1.41184 3.993,-1.41185 3.8886,1.91185 3.8885,1.91184 1.8744,3.25768 1.8744,3.25769 -3.3466,1.43668 -3.3465,1.43669 -1.8334,-2.44437 -1.8334,-2.44437 -1.7942,0 -1.7941,0 -1.2342,1.48701 -1.2341,1.48702 0.5799,2.26298 0.5799,2.26299 6.5542,3.37073 6.5541,3.37072 1.9743,2.50982 1.9742,2.50982 1.0419,3.86946 1.042,3.86945 -1.0226,3.79763 -1.0226,3.79763 -2.766,2.58018 c -1.5213,1.4191 -3.7489,3.08517 -4.9502,3.70237 l -2.1842,1.12219 -4.3158,-0.004 -4.3157,-0.004 -3.2592,-1.98712 z m 600.6889,153.82459 0.07,-2.67002 -5.5788,-4.97228 -5.5788,-4.97228 0.8288,-0.47383 c 0.4558,-0.26061 3.8454,-1.46381 7.5324,-2.67379 l 6.7036,-2.19996 0.4534,-1.68392 c 0.2494,-0.92615 0.7275,-2.91593 1.0624,-4.42174 l 0.609,-2.73783 -9.766,3.72918 -9.766,3.72919 -6,-0.28355 c -3.3,-0.15596 -7.5375,-0.37707 -9.4166,-0.49136 l -3.4166,-0.2078 -0.8003,2.94973 c -0.4402,1.62236 -0.6774,3.07271 -0.5271,3.22302 0.1503,0.15031 3.6229,0.97301 7.7169,1.82823 l 7.4437,1.55495 8.4884,8.46764 8.4885,8.46763 0.6913,-1.7456 c 0.3801,-0.96008 0.7228,-2.94711 0.7615,-4.41561 z m -782.4378,-11.74103 c -0.3687,-1.97393 -0.747,-3.66826 -0.8407,-3.76518 -0.094,-0.0969 -3.0114,0.41666 -6.4839,1.1413 l -6.3135,1.31751 -0.3585,-1.14129 c -0.1971,-0.62772 -1.0538,-3.64959 -1.9036,-6.71529 l -1.5453,-5.57398 -1.8992,-1.71876 -1.8992,-1.71876 -3.4216,-0.55525 -3.4216,-0.55525 -3.636,1.51922 -3.636,1.51921 -1.6724,3.2341 -1.6724,3.23411 1.6637,8.59467 c 0.915,4.72708 1.8713,9.3138 2.1251,10.19272 l 0.4615,1.59804 17.5619,-3.50909 17.5619,-3.50908 -0.6702,-3.58895 z m -29.7924,1.20172 c -0.2579,-0.43488 -0.7749,-2.64185 -1.149,-4.90438 l -0.6803,-4.1137 1.6363,-1.6363 1.6363,-1.6363 1.9055,0 1.9056,0 1.4249,2.25 c 0.7836,1.2375 1.7261,3.69587 2.0943,5.46304 l 0.6695,3.21305 -2.8213,0.6299 c -1.5517,0.34644 -3.571,0.83138 -4.4872,1.07763 l -1.6658,0.44773 -0.4688,-0.79067 z m 791.251,-32.76578 c 3.7954,-1.91131 7.1857,-3.93631 7.5341,-4.5 0.3484,-0.5637 1.0569,-1.0249 1.5744,-1.0249 l 0.941,0 0,1.57692 0,1.57693 2.9231,2.92307 2.923,2.92308 3.1266,0 3.1266,0 2.8292,-1.46301 2.8291,-1.46302 0.6952,-1.78698 c 0.3823,-0.98285 1.3186,-6.50777 2.0806,-12.2776 l 1.3853,-10.49062 -0.7093,-0.6174 c -0.9276,-0.80726 -34.2552,-4.18897 -34.9026,-3.54153 -0.273,0.27296 -0.5662,1.98748 -0.6516,3.81005 l -0.1552,3.31376 6.843,0.68455 c 3.7637,0.3765 7.0868,0.92825 7.3846,1.22611 l 0.5416,0.54156 -1.1583,2.78207 -1.1584,2.78206 -7.3911,3.94594 -7.3912,3.94595 -0.3423,4.30405 c -0.1883,2.36723 -0.2154,4.30406 -0.06,4.30406 0.1552,0 3.3874,-1.5638 7.1828,-3.4751 z m 16.2495,-5.7249 -1.2,-1.2 0,-2.675 c 0,-1.47125 0.2812,-4.08125 0.625,-5.8 l 0.625,-3.125 3.875,0 3.875,0 0,4.4349 0,4.4349 -0.9753,2.5651 -0.9752,2.5651 -2.3248,0 -2.3247,0 -1.2,-1.2 z m -806.2,2.67331 c 4.675,-0.34723 10.1546,-1.05427 12.177,-1.5712 l 3.677,-0.93988 2.6747,-3.17869 2.6746,-3.17868 -0.3825,-6.77046 -0.3826,-6.77047 -2.0709,-2.77372 -2.0709,-2.77373 -3.2588,-0.93462 -3.2588,-0.93462 -12.9884,1.10866 c -7.1436,0.60977 -13.1549,1.27527 -13.3586,1.47889 -0.2036,0.20363 -0.1156,1.93919 0.1956,3.8568 l 0.5658,3.48656 8.6534,-0.83107 c 4.7593,-0.45709 11.1244,-0.69967 14.1446,-0.53908 l 5.4912,0.292 1.2901,2.70137 1.29,2.70137 -0.6463,2.57501 -0.6463,2.57501 -1.635,0.86128 -1.6349,0.86129 -12.4991,1.19474 c -6.8745,0.6571 -12.641,1.33667 -12.8145,1.51015 -0.1735,0.17348 -0.01,1.96017 0.3703,3.97043 l 0.6857,3.65502 2.6288,-0.50052 c 1.4458,-0.27529 6.4538,-0.78462 11.1288,-1.13184 z m 822.3581,-40.22331 c 0.3409,-2.0625 0.6248,-8.5875 0.6309,-14.5 l 0.011,-10.75 -3.5,0 -3.5,0 0,5 0,5 -15.0604,0 -15.0604,0 0.3104,3.75 0.3104,3.75 14.75,0.27673 14.75,0.27674 0,5.47326 0,5.47327 2.8691,0 2.8692,0 0.6198,-3.75 z m -803.3581,-18.25 0,-13 -3,0 -3,0 0,7.41821 c 0,4.08002 -0.2732,8.13002 -0.607,9 l -0.607,1.58179 -14.393,0 -14.393,0 0,3.45431 0,3.45431 6.75,0.34983 c 3.7125,0.19241 11.8125,0.43797 18,0.54569 l 11.25,0.19586 0,-13 z m 788.2108,-22.03888 c 5.659,-0.57138 11.3338,-1.26301 12.6105,-1.53695 l 2.3214,-0.49808 -0.6882,-3.21305 c -0.3785,-1.76717 -0.8246,-3.36457 -0.9914,-3.54977 -0.1668,-0.18521 -6.2455,0.24441 -13.5082,0.95471 l -13.205,1.29144 -1.875,-2.3155 -1.8749,-2.31549 0,-2.27843 0,-2.27843 1.75,-2.15576 1.75,-2.15576 12.5,-1.41405 c 6.875,-0.77772 12.6125,-1.43249 12.75,-1.45502 0.1375,-0.0225 0.25,-1.61598 0.25,-3.54098 l 0,-3.5 -3.75,0.0217 c -2.0625,0.0119 -8.2646,0.6187 -13.7825,1.3484 l -10.0325,1.32673 -2.2175,1.18678 c -1.2196,0.65274 -2.9836,2.35601 -3.92,3.78505 l -1.7024,2.59826 0.1219,5.20587 0.1219,5.20586 1.5431,3.69322 1.5431,3.69323 3.2874,1.42832 c 1.8081,0.78558 4.0573,1.44594 4.9983,1.46747 0.9409,0.0215 6.3409,-0.42835 12,-0.99974 z m -787.2028,-3.21112 c 0,-0.1375 0.6739,-5.58923 1.4879,-12.11497 l 1.48,-11.86496 -0.547,-0.88504 -0.547,-0.88503 -2.8227,0 -2.8227,0 -0.708,8.5 -0.7081,8.5 -3.6602,-0.048 c -2.0131,-0.0264 -8.5078,-0.61634 -14.4326,-1.311 -5.9248,-0.69465 -10.9873,-1.04806 -11.25,-0.78535 -0.2627,0.26274 -0.4776,1.97768 -0.4776,3.81102 l 0,3.33333 1.25,0.0563 c 0.6875,0.031 8,0.87644 16.25,1.87878 17.8225,2.16536 17.4978,2.13171 17.508,1.81488 z m 766.7341,-37.15876 c 0.1354,-0.1354 -0.5968,-4.1036 -1.6271,-8.81821 l -1.8732,-8.57203 13.4446,-2.83199 c 7.3946,-1.5576 13.8705,-3.09514 14.3909,-3.41678 l 0.9462,-0.58478 -0.6368,-3.18373 -0.6367,-3.18372 -1.125,10e-4 c -2.0722,0.002 -32.7801,6.82064 -33.369,7.40954 l -0.5812,0.58124 2.2999,11.25407 c 1.2649,6.18974 2.5122,11.62803 2.7717,12.0851 l 0.4718,0.83102 2.6388,-0.66231 c 1.4514,-0.36427 2.7497,-0.77309 2.8851,-0.9085 z m -787.1277,-3.71382 10.8856,-4.12257 7.2421,1.18647 7.2421,1.18647 1.0079,-0.62291 1.0079,-0.62291 0,-2.86083 0,-2.86083 -7.25,-1.632 -7.25,-1.63199 -8.6888,-8.61633 -8.6887,-8.61634 -0.6448,2.91818 c -0.3546,1.60499 -0.8446,3.54971 -1.0887,4.32159 l -0.444,1.40341 5.5275,4.92657 c 3.0401,2.70962 5.5275,5.31463 5.5275,5.78892 l 0,0.86234 -7.033,2.26514 -7.0331,2.26514 -0.5599,2.54253 c -0.308,1.39839 -0.7734,3.33003 -1.0344,4.29253 -0.2609,0.9625 -0.2801,1.75 -0.043,1.75 0.2375,0 5.3303,-1.85516 11.3174,-4.12258 z m 286.6356,-294.98279 2.75,-2.92618 0,-3.56115 0,-3.56115 -2.9231,-2.923072 -2.9231,-2.923077 -1.6121,0 -1.6121,0 1.0352,-1.934259 c 0.5693,-1.063842 1.0352,-3.123457 1.0352,-4.576923 l 0,-2.642664 -2.9231,-2.923077 -2.9231,-2.923077 -2.3269,-0.01783 c -1.2798,-0.0098 -6.7144,1.439194 -12.0769,3.219999 l -9.75,3.237826 0,0.847048 c 0,0.465877 2.5233,8.215554 5.6073,17.221506 l 5.6074,16.37445 10.1426,-3.53109 10.1427,-3.5311 2.75,-2.92618 z m -19.3643,-2.88178 -1.2494,-4.17005 1.4231,-0.87955 c 0.7828,-0.48374 3.5741,-1.39555 6.2031,-2.02623 l 4.7799,-1.14668 1.5294,1.26923 1.5293,1.26924 -0.3006,2.58371 -0.3005,2.58371 -3.6276,1.7021 c -1.9951,0.93616 -4.7773,1.99066 -6.1824,2.34334 l -2.5549,0.64124 -1.2494,-4.17006 z m -4.7252,-13.559902 c -0.6383,-1.400879 -1.1605,-2.927018 -1.1605,-3.39142 0,-1.14691 7.4727,-4.061527 10.4132,-4.061527 l 2.3728,0 0.607,1.581787 c 0.3338,0.869984 0.607,2.235975 0.607,3.035538 l 0,1.45375 -4.5829,1.964462 c -2.5206,1.080455 -5.1484,1.964463 -5.8395,1.964463 l -1.2566,0 -1.1605,-2.547053 z m 276.9311,11.010932 c 2.3843,-6.894869 4.6465,-13.040237 5.0273,-13.656376 l 0.6924,-1.120251 4.6887,1.312748 4.6887,1.312748 0.8903,-1.406374 c 0.4897,-0.773506 0.8949,-2.081374 0.9004,-2.906374 l 0.01,-1.5 -13.2251,-4.686287 c -7.2738,-2.577457 -13.3418,-4.569645 -13.4843,-4.427083 -0.1426,0.142562 -0.5311,1.618596 -0.8634,3.280075 l -0.6042,3.020872 4.5938,1.286172 c 2.5265,0.707395 4.5937,1.62374 4.5937,2.036322 0,0.412582 -2.025,6.458499 -4.5,13.435368 -2.475,6.97688 -4.5,13.03706 -4.5,13.46708 0,0.85689 3.8303,2.91195 5.6284,3.0198 l 1.1284,0.0677 4.3349,-12.53612 z m -29.1703,-14.616959 c 2.2582,-9.434194 3.9872,-17.256627 3.8423,-17.383184 -0.145,-0.126558 -1.6689,-0.530849 -3.3864,-0.898426 l -3.1227,-0.66832 -2.7996,11.284593 -2.7995,11.284593 -4.3724,-13.117017 -4.3723,-13.117016 -3.1151,-0.623016 c -1.7133,-0.342659 -3.3109,-0.427192 -3.5502,-0.187852 -0.2394,0.23934 -2.2242,7.958811 -4.4108,17.154381 l -3.9756,16.719213 1.3205,0.83725 c 0.7263,0.46049 2.3026,0.84415 3.503,0.85257 l 2.1826,0.0153 2.2327,-9.999999 c 1.228,-5.5 2.5169,-10 2.8641,-10 0.3472,0 2.384,5.383602 4.5262,11.963559 l 3.8949,11.96356 1.5585,0.42044 c 0.8572,0.23124 2.5295,0.47264 3.7162,0.53644 l 2.1578,0.116 4.1058,-17.153079 z m -191.1713,13.412879 12.25,-2.75178 0,-2.69499 c 0,-1.482247 -0.3467,-2.909255 -0.7704,-3.171128 -0.4237,-0.261873 -4.7397,0.435568 -9.5911,1.54987 l -8.8208,2.026002 -0.831,-0.858886 c -0.4571,-0.472388 -1.1304,-2.488696 -1.4961,-4.480684 l -0.6651,-3.621797 7.2099,-1.628203 c 3.9654,-0.895512 7.886,-1.628203 8.7122,-1.628203 l 1.5024,0 -0.6354,-3.177083 c -0.3495,-1.747396 -0.7485,-3.290093 -0.8866,-3.428216 -0.1381,-0.138123 -4.0229,0.627119 -8.6328,1.700537 -4.6099,1.073418 -8.5848,1.748488 -8.8332,1.500155 -0.2483,-0.248333 -0.5214,-1.939905 -0.6068,-3.759049 l -0.1552,-3.307533 8.75,-1.949893 8.75,-1.949892 -0.015,-2.064513 c -0.01,-1.135482 -0.3459,-2.565057 -0.75,-3.176834 l -0.7347,-1.112321 -12.4031,2.848752 c -6.8217,1.566813 -12.5752,3.020845 -12.7856,3.231182 -0.4028,0.402884 6.5884,32.603947 7.359,33.894707 0.2462,0.4125 0.7587,0.7526 1.1387,0.75579 0.38,0.003 6.2035,-1.23252 12.941,-2.74599 z m 36.9276,-6.272187 c 4.3023,-0.556813 9.2849,-1.252204 11.0724,-1.545313 l 3.25,-0.532925 0,-2.954687 0,-2.954687 -2.25,0.02011 c -1.2375,0.01106 -5.161,0.440798 -8.7188,0.954976 l -6.4689,0.934869 -0.6313,-1.0216 c -0.3473,-0.56188 -1.1745,-6.279119 -1.8383,-12.704976 -0.6637,-6.42586 -1.4365,-12.470879 -1.7172,-13.433379 l -0.5103,-1.75 -3.4326,0 -3.4326,0 0,2.086841 c 0,2.318286 2.6869,25.564628 3.5441,30.663159 l 0.5465,3.25 1.3823,0 c 0.7603,0 4.9024,-0.455574 9.2047,-1.012388 z m 102.122,-1.392598 c 3.7196,-1.935307 6.7094,-5.456286 8.0619,-9.494237 l 1.1385,-3.399224 0,-5.400436 0,-5.400437 -1.405,-2.70034 c -1.9353,-3.719601 -5.4563,-6.70936 -9.4942,-8.061817 l -3.3993,-1.138523 -4.2029,0 -4.2029,0 -3.374,2.273797 -3.3741,2.273796 -2.2235,3.299467 -2.2236,3.299466 -0.6975,4.651598 -0.6976,4.651598 1.2094,4.525139 1.2094,4.525139 2.1879,2.377498 c 1.2033,1.307624 3.5379,2.97751 5.1879,3.710858 l 3,1.33336 5.2996,0.03914 5.2997,0.03914 2.7003,-1.404986 z m -12.6896,-5.990521 -2.3899,-1.324636 -1.3246,-2.389928 -1.3247,-2.389929 -0.035,-3.782119 -0.035,-3.782118 1.4153,-3.38739 1.4154,-3.38739 2.0189,-1.080492 2.0189,-1.080491 3.6112,0 3.6112,0 2.4545,2.454545 2.4546,2.454546 0,5.498401 0,5.498402 -1.1947,2.622048 -1.1947,2.622049 -2.7557,1.425005 c -3.3806,1.748211 -5.6302,1.755799 -8.7449,0.0295 z m -55.812,-8.354493 -0.2929,-12.75 1.4177,4.5 c 0.7796,2.475 2.4028,8.2125 3.6069,12.75 l 2.1894,8.25 3.6786,0 3.6787,0 3.1251,-13.25 3.1252,-13.25 0.087,13.25 0.087,13.25 3.5,0 3.5,0 0,-18 0,-18 -5.8172,0 -5.8171,0 -1.7698,7.75 c -0.9734,4.2625 -2.2372,9.55 -2.8083,11.75 l -1.0385,4 -1.4422,-5 c -0.7933,-2.75 -2.3309,-8.0375 -3.417,-11.75 l -1.9746,-6.75 -5.4577,0 -5.4576,0 0,18 0,18 3.7954,0 3.7954,0 -0.2928,-12.75 z"
         id="path3369"
         inkscape:connector-curvature="0" />
      <path
         style="fill:#053794"
         d="m 1425.9014,955.89515 c -35.9164,-5.64715 -73.8296,-19.88108 -121.2727,-45.53 -8.375,-4.52776 -26.0273,-14.38097 -39.2273,-21.89602 -30.6483,-17.44872 -50.1158,-27.98233 -61.2077,-33.11858 -13.4964,-6.24971 -27.8172,-11.7004 -38.2923,-14.5745 l -9.5,-2.60656 -15.75,-0.45222 -15.75,-0.45223 0,-0.64948 c 0,-0.35722 19.728,-20.3737 43.8401,-44.48108 l 43.8401,-43.83159 -12.9937,-12.91415 c -7.1465,-7.10278 -13.2602,-12.91414 -13.5859,-12.91414 -0.3257,0 -20.2139,19.61789 -44.196,43.59532 l -43.6037,43.59532 -0.577,-14.34532 -0.577,-14.34532 -2.4578,-9.5 c -1.3518,-5.225 -4.1118,-14 -6.1334,-19.5 l -3.6756,-10 -9.3864,-19 -9.3864,-19 -15.1338,-26.5 c -31.2988,-54.80568 -44.4387,-80.60705 -55.50141,-108.98238 -8.88357,-22.7859 -14.88525,-45.83131 -17.44646,-66.99139 l -1.02566,-8.47376 0,-13.72502 0,-13.72502 1.54503,-11.80121 c 0.84977,-6.49067 2.65835,-16.75122 4.01908,-22.80122 l 2.47404,-11 5.41321,-16.05398 c 2.97726,-8.82968 7.7428,-21.42968 10.59007,-28 8.4721,-19.55 23.7312,-48.84982 43.9787,-84.44602 21.5108,-37.81719 35.5854,-65.09012 42.3174,-82 l 4.5782,-11.5 2.5991,-10.5 2.5992,-10.5 0.5934,-14.34532 0.5935,-14.34532 43.6569,43.64847 43.6569,43.64847 13.1966,-13.29498 13.1966,-13.29499 -43.5993,-43.60772 -43.5993,-43.60772 14.3454,-0.59343 14.3453,-0.59343 10.5,-2.59916 10.5,-2.59917 11.5,-4.57822 c 16.9099,-6.73192 44.1828,-20.806537 82,-42.31736 35.5962,-20.247498 64.896,-35.506562 84.446,-43.978675 6.5703,-2.847284 19.1703,-7.612824 28,-10.590088 l 16.054,-5.413208 11,-2.4740421 c 6.05,-1.3607231 16.3105,-3.1693065 22.8012,-4.0190742 l 11.8012,-1.54503206 13.725,0 13.725,0 8.4738,1.02566266 c 21.1361,2.5583095 44.206,8.5630907 66.918,17.4178527 28.1158,10.961524 50.9369,22.534784 104.5558,53.023211 l 31,17.627032 19,9.393188 19,9.393183 10,3.67563 c 5.5,2.0216 14.275,4.78161 19.5,6.13337 l 9.5,2.45775 14.3453,0.577 14.3452,0.57701 -43.0952,43.10382 c -23.7025,23.7071 -43.0953,43.35133 -43.0953,43.65384 0,0.30252 5.8189,6.40859 12.931,13.56904 l 12.9309,13.01901 43.3147,-43.3233 c 23.8231,-23.82782 43.607,-43.3233 43.9643,-43.3233 l 0.6495,0 0.4522,15.75 0.4523,15.75 2.6395,9.7124 c 5.8391,21.48529 18.3827,48.02806 43.3773,91.7876 36.1242,63.24462 49.0046,89.39869 60.0828,122 5.7888,17.03541 9.4767,32.06697 11.7759,47.99748 l 1.6594,11.49748 -0.5131,22.00252 -0.513,22.00252 -2.6447,12.5 c -3.6804,17.3958 -8.6139,33.62502 -15.7756,51.89583 l -6.1164,15.60417 -11.7936,23.5 -11.7937,23.5 -19.0794,33.5 -19.0795,33.5 -10.4045,21 -10.4045,21 -3.4776,9.5 c -1.9127,5.225 -4.4672,13.1 -5.6767,17.5 l -2.199,8 -0.4987,15.75 -0.4988,15.75 -0.6263,0 c -0.3445,0 -20.2447,-19.61458 -44.2227,-43.58796 l -43.5964,-43.58797 -13.2779,13.21366 -13.2779,13.21366 43.6201,43.62852 c 23.991,23.99568 43.6201,43.91036 43.6201,44.25483 l 0,0.62631 -15.75,0.49875 -15.75,0.49875 -8,2.19902 c -4.4,1.20946 -12.275,3.76394 -17.5,5.67662 l -9.5,3.47759 -21,10.40455 -21,10.40454 -33.5,19.07943 -33.5,19.07942 -23.5,11.79366 -23.5,11.79366 -15.6042,6.11643 c -18.2386,7.14907 -34.4595,12.0829 -51.8958,15.78488 l -12.5,2.65393 -24,0.34598 -24,0.34598 -9.5,-1.49369 z m 44.5,-11.47534 12,-1.03415 12.1325,-2.43753 c 15.2275,-3.05933 31.9367,-8.10184 48.7869,-14.72291 l 13.0806,-5.13985 24.5,-12.2623 24.5,-12.2623 33.5,-19.1124 33.5,-19.1124 21,-10.36714 21,-10.36715 9.9229,-3.64467 c 5.4576,-2.00456 14.7951,-4.83567 20.75,-6.29135 5.9549,-1.45568 10.8271,-2.88419 10.8271,-3.17447 0,-0.29028 -15.0154,-15.53814 -33.3675,-33.88412 l -33.3675,-33.35634 -12.3825,9.48538 c -32.0553,24.55532 -65.6295,42.66479 -102.8825,55.49339 -34.5864,11.91031 -68.1165,18.13901 -106.5,19.78393 l -16,0.68568 -17,-1.16561 c -9.35,-0.64108 -21.95,-1.84765 -28,-2.68126 -26.1994,-3.60995 -54.8866,-10.95247 -80.0013,-20.47644 l -13.9987,-5.30857 -18.5,-9.24149 -18.5,-9.24148 -10.742,-6.80483 c -12.8641,-8.14915 -25.732,-17.20747 -35.2233,-24.79517 l -6.9652,-5.56831 -33.7588,33.74786 -33.7588,33.74785 10.724,2.67781 c 28.2839,7.06251 47.1315,15.99367 112.7241,53.41582 14.3,8.15849 36.8,20.29048 50,26.95996 l 24,12.12634 15.5,6.11053 c 26.1382,10.30442 50.2068,16.41525 71.5914,18.17652 14.3765,1.18409 17.5968,1.18838 30.9086,0.0412 z m 23,-117.90679 c 32.5597,-3.85198 63.4245,-11.55283 93,-23.20372 11.6173,-4.57652 40.8449,-18.94739 44.5,-21.88012 l 2.5,-2.00596 -2.5,0.48891 c -4.045,0.79104 -20.8758,2.34443 -65,5.99914 l -41.5,3.43736 -13,-1.82222 c -7.15,-1.00221 -18.5871,-2.15307 -25.4156,-2.55746 l -12.4156,-0.73526 2.831,4.87046 c 1.5571,2.67875 3.4804,5.87837 4.274,7.11026 l 1.4428,2.23982 -1.3583,0.4415 c -2.7876,0.90607 -20.0113,4.57091 -40.3583,8.58738 -24.0453,4.7465 -38.4802,8.20203 -46.7984,11.20292 l -5.7984,2.09183 0.7984,0.73865 c 1.1119,1.02868 17.6399,3.67301 30.7984,4.92744 6.05,0.57676 12.8,1.22595 15,1.44264 2.2,0.21669 14.35,0.23585 27,0.0426 l 23,-0.3514 9,-1.06475 z m -163.1209,-34.0313 17.1588,-4.99288 54.1348,-5.95986 54.1348,-5.95987 3.3462,0.53164 3.3463,0.53165 60,-7.64786 c 51.0879,-6.51189 92.8285,-11.39387 98.5,-11.52056 l 1.5,-0.0335 -5.3297,-3.10649 c -2.9313,-1.70856 -11.0313,-5.58373 -18,-8.61148 l -12.6703,-5.50499 -3.0491,0.0955 c -1.677,0.0525 -21.5515,2.57128 -44.1656,5.59718 l -41.1165,5.50165 -23.3344,-8.03166 -23.3344,-8.03165 -17,0.27996 c -15.4005,0.25361 -167.7652,-0.22198 -168.171,-0.52493 -0.2293,-0.17116 3.6297,-18.9357 3.933,-19.12461 0.6356,-0.39584 197.0379,-10.52776 197.3832,-10.18252 0.2192,0.21925 1.3416,4.85127 2.4941,10.29338 1.1525,5.44211 2.3801,10.1824 2.7281,10.53396 l 0.6326,0.63922 25,-1.88339 c 25.8222,-1.94533 52.4588,-4.52049 53.0688,-5.13058 0.1914,-0.19137 -8.1833,-4.59469 -18.6104,-9.78516 l -18.9584,-9.4372 0,-2.87802 0,-2.87803 1.25,0.52448 c 0.6875,0.28846 12.725,5.57204 26.75,11.74128 l 25.5,11.21682 9.3045,0.75352 c 5.1174,0.41444 9.4422,0.91651 9.6107,1.1157 0.1684,0.1992 1.0883,3.60848 2.0444,7.57618 l 1.7382,7.214 2.1374,0.67838 c 1.1755,0.37311 12.0971,5.50356 24.2701,11.40099 l 22.1328,10.7226 0.7298,6.81524 c 0.4014,3.74839 1.0386,7.64993 1.416,8.6701 l 0.6862,1.85486 10.4649,-7.16803 c 51.4172,-35.21856 91.9148,-81.84609 118.4698,-136.40214 17.6722,-36.30665 28.5521,-73.82641 33.6373,-116 l 1.3264,-11 0.01,-26.5 0,-26.5 -1.2918,-10.5 c -3.4478,-28.02036 -8.7234,-51.85135 -16.7326,-75.58245 -15.5699,-46.13338 -40.0505,-87.23044 -74.7085,-125.41755 l -9.5296,-10.5 -11.358,-10.18065 c -14.1843,-12.71395 -25.1152,-21.28239 -39.858,-31.24371 -15.9158,-10.75381 -28.8292,-18.18159 -45.3782,-26.10154 -33.617,-16.0882 -69.1283,-26.47639 -108.1218,-31.62911 l -13,-1.71786 -28.5,-0.0636 -28.5,-0.0636 -11,1.3421 c -14.3409,1.74973 -35.4446,5.61042 -48,8.7811 -29.2416,7.38451 -60.0621,19.8485 -87,35.18337 -13.7304,7.81622 -32.6817,20.81029 -46.6133,31.96067 l -13.3867,10.71432 -13.5429,13.50925 -13.543,13.50926 -9.2125,11.32133 c -28.7108,35.2826 -49.7902,73.52608 -63.0782,114.44006 -2.1862,6.73124 -5.1113,16.73861 -6.5002,22.23861 -3.1707,12.5554 -7.0314,33.65908 -8.7811,48 l -1.3421,11 0.1131,29.5 0.1131,29.5 0.9029,4.43151 0.9028,4.4315 12.4841,1.79456 c 16.7535,2.4083 31.5603,5.25758 48.8364,9.39765 l 14.3525,3.43944 2.9743,2.50267 2.9742,2.50267 -1.1276,0 c -0.6201,0 -7.2922,-1.53859 -14.8267,-3.41909 -7.5345,-1.8805 -19.5491,-4.57989 -26.6991,-5.99866 -14.5801,-2.89309 -37.816,-6.56074 -38.3474,-6.05287 -0.191,0.1826 0.2092,4.40457 0.8894,9.38215 l 1.2368,9.05015 3.1106,0.46302 c 1.7108,0.25466 9.1856,1.1703 16.6106,2.03477 l 13.5,1.57174 36.4916,6.55934 c 20.0704,3.60763 36.5087,6.6381 36.5296,6.73439 0.021,0.0963 0.8305,1.91606 1.7989,4.04395 l 1.7609,3.86889 -3.2905,-0.602 c -1.8098,-0.3311 -14.9905,-2.1683 -29.2905,-4.08268 -23.7192,-3.17533 -42.2039,-5.24558 -65.6834,-7.35638 l -8.6834,-0.78063 0.5665,3.04195 c 1.056,5.67 9.113,32.99751 12.1005,41.04196 l 2.971,8 4.8644,-0.149 c 2.6754,-0.082 30.2015,-0.48979 61.1692,-0.90631 l 56.3048,-0.7573 -4.263,-4.34369 -4.263,-4.3437 1.2675,0 c 0.6972,0 17.1034,2.03173 36.4582,4.51495 33.438,4.29008 70.7292,10.05019 82.6907,12.77264 l 5.5,1.25181 0.3195,2.2303 0.3196,2.2303 -1.584,0 c -0.8712,0 -12.04,-1.32293 -24.8196,-2.93984 -34.19,-4.32583 -52.2699,-6.05585 -70.6143,-6.75689 l -16.3787,-0.62593 1.7168,2.62018 1.7168,2.62018 -2.3381,0.49055 c -1.2859,0.26981 -12.1433,2.14188 -24.1275,4.16015 l -21.7896,3.66959 -28.2104,-1.12229 c -15.5158,-0.61727 -32.6283,-1.12082 -38.0279,-1.119 l -9.8174,0.003 0.6871,2.25 c 1.1304,3.7011 11.9415,24.53064 18.3502,35.35489 l 5.9829,10.10489 17.3073,0.64902 c 9.519,0.35697 39.5823,1.14431 66.8073,1.74965 27.225,0.60534 49.6804,1.27155 49.901,1.48046 0.5827,0.55187 5.8599,22.84398 5.5089,23.2707 -0.1627,0.19779 -9.3162,-0.15409 -20.3411,-0.78195 l -20.0453,-1.14157 -44.6722,-6.47431 c -24.5697,-3.56087 -44.8689,-6.27759 -45.1093,-6.03716 -0.5374,0.53747 10.1123,14.75426 17.6603,23.57538 17.8365,20.84507 32.9312,35.36483 53.3903,51.35698 11.0956,8.67306 30.3444,21.51138 43.5282,29.03194 9.376,5.34844 26.0497,13.61108 27.4667,13.61108 0.513,0 8.6542,-2.2468 18.0916,-4.99288 z m 72.8533,-108.32075 -28.2676,-10.18637 14.7676,-0.67642 c 23.5442,-1.07843 80.8825,-2.85115 91.2676,-2.8217 l 9.5,0.0269 2.71,4.91452 2.71,4.91453 -6.71,1.50185 c -3.6905,0.82601 -17.51,3.812 -30.71,6.63553 -13.2,2.82352 -24.675,5.30104 -25.5,5.50559 l -1.5,0.3719 -28.2676,-10.18637 z m -46.7132,-14.72416 -12.9808,-2.82826 -26.5192,0.58176 -26.5192,0.58175 -18,-5.28465 c -9.9,-2.90656 -18.6015,-5.60071 -19.3367,-5.98701 l -1.3367,-0.70235 21.2479,-0.66173 c 11.6864,-0.36394 35.2999,-0.66172 52.4745,-0.66172 l 31.2266,0 3.3971,5.72571 3.397,5.72572 4.2929,3.27428 4.2929,3.27429 -1.3278,-0.10477 c -0.7302,-0.0576 -7.1691,-1.37748 -14.3085,-2.93302 z m 92.4808,-12.03911 c -13.475,-1.57118 -48.8,-5.58454 -78.5,-8.91857 l -54,-6.06189 -21.8328,-7.05518 c -12.0081,-3.88035 -21.6831,-7.17349 -21.5,-7.31808 0.4047,-0.31969 36.9323,2.57682 68.3328,5.41854 12.65,1.14482 37.1025,3.86587 54.3389,6.04678 17.2364,2.18092 32.0864,3.94917 33,3.92945 l 1.6611,-0.0358 -6.5,-2.83358 c -3.575,-1.55846 -11.7875,-5.33613 -18.25,-8.39481 l -11.75,-5.56124 0,-2.4709 0,-2.4709 32.1771,12.88948 32.1772,12.88949 3.5728,0.58201 c 1.9651,0.32011 5.8717,1.01922 8.6813,1.55358 l 5.1084,0.97157 1.1416,2.50555 c 0.6279,1.37806 1.1416,3.60938 1.1416,4.9585 l 0,2.45295 -2.25,-0.11011 c -1.2375,-0.0606 -13.275,-1.39561 -26.75,-2.96679 z m -17,-13.4231 c 0,-0.275 -0.225,-0.5 -0.5,-0.5 -0.275,0 -0.5,0.225 -0.5,0.5 0,0.275 0.225,0.5 0.5,0.5 0.275,0 0.5,-0.225 0.5,-0.5 z m -101,-48.62573 c -13.0905,-3.01408 -41.3415,-7.66322 -62.5369,-10.29142 l -19.1584,-2.37561 -2.1524,-1.34417 c -1.1838,-0.73929 -2.1523,-1.72814 -2.1523,-2.19745 l 0,-0.8533 4.75,0.56943 c 2.6125,0.31318 9.925,1.06298 16.25,1.66622 23.7256,2.26279 64.9182,9.06945 72.6295,12.00129 l 2.3705,0.90124 0,2.02475 0,2.02475 -0.75,-0.0843 c -0.4125,-0.0464 -4.575,-0.96501 -9.25,-2.04142 z m 199.9953,-77.59028 c -5.7724,-14.6439 -11.2753,-28.57349 -12.2286,-30.95463 l -1.7333,-4.32936 3.2333,4.9e-4 3.2333,4.8e-4 8.9871,22.96242 8.9871,22.96242 0.6071,-0.71291 c 0.3339,-0.39209 4.5351,-10.7254 9.3361,-22.9629 l 8.729,-22.25 2.9268,0 c 1.6097,0 2.9268,0.27018 2.9268,0.60041 0,0.94518 -23.2147,59.81695 -23.8979,60.60423 l -0.6114,0.70463 -10.4954,-26.62528 z m 121.4837,23.36066 c -2.2115,-0.71411 -5.2674,-2.11514 -6.791,-3.11338 l -2.77,-1.815 -2.709,-4.60813 -2.709,-4.60814 -0.3188,-22.25 -0.3187,-22.25 2.9988,0 2.9988,0 0.32,21.92944 0.3199,21.92944 2.0618,2.75877 c 1.1339,1.51733 3.2379,3.63691 4.6755,4.7102 l 2.6137,1.95142 4.8245,0.4219 4.8245,0.4219 3.5,-1.91315 3.5,-1.91314 2.25,-3.29627 2.25,-3.29628 0,-21.85211 0,-21.85212 3.0513,0 3.0514,0 -0.3014,23.40962 -0.3013,23.40962 -3.0894,3.84038 -3.0894,3.84038 -3.9106,2.16696 -3.9106,2.16696 -4.5,0.55456 -4.5,0.55456 -4.021,-1.29839 z m -302.8124,-0.31132 -0.6666,-0.66666 0,-93.83334 0,-93.83333 7.5,0 7.5,0 0,88 0,88 41,0 41,0 0,6.5 0,6.5 -47.8334,0 -47.8333,0 -0.6667,-0.66667 z m 110.6019,-1.08333 c 0.3888,-1.35612 17.5044,-44.81745 22.9395,-58.25 l 1.0115,-2.5 2.3013,6 c 1.2657,3.3 6.7933,17.3625 12.2836,31.25 l 9.9823,25.25 -3.1433,-0.006 -3.1434,-0.007 -4.3409,-10.99365 -4.3408,-10.99365 -9.6592,0.006 -9.6591,0.006 -4.3409,10.99365 -4.3408,10.99435 -3.0258,0 -3.0258,0 0.5018,-1.75 z m 30.6678,-26.5 c -0.035,-0.6875 -1.5635,-5.075 -3.3966,-9.75 l -3.3329,-8.5 -0.9886,2.5 c -0.5438,1.375 -2.1653,5.39008 -3.6035,8.92241 -1.4381,3.53232 -2.6147,6.79482 -2.6147,7.25 l 0,0.82759 7,0 7,0 -0.064,-1.25 z m 84.3146,27.07344 c 18.0508,-45.83326 23.1041,-58.55663 23.6778,-59.61723 l 0.6998,-1.29378 11.9357,30.18654 c 6.5647,16.6026 12.0965,30.60441 12.2929,31.11513 l 0.3571,0.92859 -3.3323,-0.32134 -3.3324,-0.32135 -4.1021,-10.5 -4.1022,-10.5 -9.8916,0 -9.8916,0 -4.1019,10.5 -4.1018,10.5 -3.3143,0.32344 -3.3144,0.32344 0.5213,-1.32344 z m 31.7491,-26.12911 c 0,-0.47106 -7.157,-18.1532 -7.4887,-18.50159 -0.1609,-0.169 -1.6484,3.206 -3.3056,7.5 -1.6572,4.29399 -3.3295,8.59476 -3.7164,9.55726 l -0.7033,1.75 7.607,0 c 4.1838,0 7.607,-0.13755 7.607,-0.30567 z m 88,26.86546 c 0,-0.24211 4.446,-7.51771 9.8801,-16.168 l 9.8801,-15.7278 -3.2337,-5.08199 c -1.7785,-2.7951 -5.5526,-8.7945 -8.3869,-13.332 l -5.1533,-8.25 3.4172,0 3.4172,0 3.9332,6.25 c 2.1633,3.4375 5.1614,8.20545 6.6625,10.59544 l 2.7292,4.34544 6.6772,-10.59082 6.6772,-10.59082 3.2851,-0.005 3.2852,-0.005 -1.1645,2.17598 c -0.6405,1.19679 -4.291,7.08203 -8.1121,13.07831 l -6.9476,10.90234 0.5127,1.33606 c 0.282,0.73484 4.8239,8.15219 10.0932,16.48302 l 9.5804,15.14696 -3.6772,-0.31134 -3.6772,-0.31057 -7.879,-12.5 c -4.3335,-6.875 -8.1986,-12.6086 -8.589,-12.74134 -0.3905,-0.13273 -4.31,5.60118 -8.71,12.74202 l -8,12.98335 -3.25,0.008 c -1.7875,0.004 -3.25,-0.1901 -3.25,-0.43222 z m -539.5,-116.524 c -3.1223,-1.30736 -6.5877,-5.00134 -8.1102,-8.64529 -0.7644,-1.82945 -1.3898,-3.73612 -1.3898,-4.23706 0,-0.50094 1.3228,-1.45874 2.9396,-2.12844 l 2.9397,-1.21764 1.0603,0.65534 1.0604,0.65533 0,1.8302 0,1.8302 1.8711,2.31079 1.8712,2.31078 3.5791,0 3.5791,0 2.0497,-1.85499 2.0498,-1.85499 0,-3.84501 0,-3.84501 -1.9444,-1.9444 c -1.0694,-1.06942 -4.4816,-3.1447 -7.5827,-4.61172 l -5.6382,-2.66731 -1.9136,-3.13828 -1.9136,-3.13829 0,-3.76469 0,-3.76468 3.3068,-3.60844 3.3069,-3.60843 4.079,-0.10696 4.0789,-0.10695 2.6995,1.44471 2.6995,1.44472 1.4147,2.7357 c 0.778,1.50463 1.4147,3.16403 1.4147,3.68753 l 0,0.95184 -3.1622,1.10233 c -1.7392,0.60629 -3.2532,0.98781 -3.3645,0.84783 -0.1114,-0.13998 -0.7292,-1.26701 -1.3731,-2.50451 l -1.1706,-2.25 -2.4296,0 -2.4297,0 -1.0703,2 -1.0704,2 1.0916,2.03965 1.0916,2.03965 5.4422,2.57677 5.4422,2.57677 2.9521,3.3622 2.952,3.3622 0.6673,3.55675 0.6672,3.55675 -0.6098,3.04879 c -0.3353,1.67683 -1.5045,4.30544 -2.5982,5.84134 l -1.9885,2.79256 -3.4208,1.62328 -3.4208,1.62329 -3.8489,-0.0634 c -2.1163,-0.0349 -4.7483,-0.44022 -5.8483,-0.90081 z m 34.1666,0.29754 -0.6666,-0.66666 0,-23.96484 0,-23.96484 7.25,0.47342 7.25,0.47342 4.1242,2.11423 4.1242,2.11424 2.7773,3.29385 c 1.5276,1.81162 3.4322,4.85699 4.2327,6.7675 l 1.4553,3.47365 0.054,5.68826 0.054,5.68826 -2.7696,5.6609 -2.7696,5.6609 -3.9415,2.85519 -3.9415,2.85518 -4.9985,1.07201 c -5.6546,1.21269 -11.2411,1.39778 -12.2335,0.40533 z m 16.9106,-10.82442 3.2442,-2.4745 1.7195,-4.50235 1.7194,-4.50235 -0.6766,-4.23134 -0.6766,-4.23135 -2.5053,-3.28456 -2.5052,-3.28456 -2.8987,-1.49895 c -1.5942,-0.82442 -3.821,-1.49895 -4.9483,-1.49895 l -2.0496,0 0,16.625 0,16.625 3.1665,-0.6333 3.1665,-0.6333 3.2442,-2.47449 z m 56.6636,9.49649 -3.2591,-1.98712 -1.9871,-3.25914 -1.9871,-3.25914 0,-2.27475 0,-2.27475 2.5651,-0.97525 c 1.4113,-0.53639 2.8932,-0.97525 3.2937,-0.97525 0.4004,0 1.1586,1.42586 1.6849,3.16858 l 0.9568,3.16858 2.6629,1.96168 2.663,1.96167 2.5593,-0.64236 2.5594,-0.64236 2.0277,-2.17646 2.0277,-2.17645 0,-2.58894 0,-2.58893 -1.5721,-2.24452 -1.5722,-2.24451 -5.6778,-2.87776 -5.6779,-2.87775 -2.5,-2.6808 -2.5,-2.6808 0,-4.3461 0,-4.34611 2.0906,-2.82333 2.0906,-2.82333 3.993,-1.41184 3.993,-1.41185 3.8886,1.91185 3.8885,1.91184 1.8744,3.25768 1.8744,3.25769 -3.3466,1.43668 -3.3465,1.43669 -1.8334,-2.44437 -1.8334,-2.44437 -1.7942,0 -1.7941,0 -1.2342,1.48701 -1.2341,1.48702 0.5799,2.26298 0.5799,2.26299 6.5542,3.37073 6.5541,3.37072 1.9743,2.50982 1.9742,2.50982 1.0419,3.86946 1.042,3.86945 -1.0226,3.79763 -1.0226,3.79763 -2.766,2.58018 c -1.5213,1.4191 -3.7489,3.08517 -4.9502,3.70237 l -2.1842,1.12219 -4.3158,-0.004 -4.3157,-0.004 -3.2592,-1.98712 z m 543.6776,334.99421 c 6.2137,-20.57512 19.697,-47.95833 48.5004,-98.49961 l 17.6668,-31 12.2626,-24.5 12.2625,-24.5 5.1399,-13.08059 c 6.6153,-16.83557 11.6599,-33.54663 14.7273,-48.78687 l 2.4419,-12.13254 1.1036,-13.16827 1.1036,-13.16827 -1.0924,-13.6807 -1.0924,-13.68071 -2.0261,-10.49893 c -3.817,-19.77926 -11.5553,-43.0956 -22.3368,-67.30312 -6.9305,-15.56106 -21.4458,-43.1758 -38.1085,-72.5 -37.7898,-66.50524 -46.3096,-84.50494 -53.356,-112.7241 l -2.6778,-10.72411 -33.3893,33.40051 -33.3894,33.40052 1.4208,1.95061 c 0.7815,1.07284 4.9122,6.48933 9.1794,12.03664 8.7736,11.40547 19.8826,28.24685 27.6067,41.85177 14.97,26.36782 27.8131,59.0969 35.6649,90.88796 l 3.4775,14.07981 2.4523,15.92019 c 6.8753,44.63334 5.9179,85.626 -3.0294,129.71835 -3.2087,15.81231 -6.6702,28.29825 -12.6701,45.70185 -12.858,37.29695 -30.9503,70.83603 -55.499,102.88256 l -9.4854,12.38255 33.8532,33.86416 33.8532,33.86416 1.5855,-7.2471 c 0.8721,-3.98591 2.6048,-10.62193 3.8505,-14.74672 z m -662.992,-12.42602 33.4152,-33.42641 -1.4208,-1.96582 c -0.7814,-1.0812 -5.3758,-7.165 -10.2097,-13.51956 -4.8339,-6.35456 -12.6138,-17.54055 -17.2886,-24.85777 l -8.4997,-13.30403 -9.3974,-19 -9.3975,-19 -4.9994,-13.5 c -9.9467,-26.8587 -17.0254,-55.25308 -20.8167,-83.5 l -1.7448,-13 -0.034,-31 -0.034,-31 1.3261,-10.5 c 3.401,-26.9297 8.9076,-51.31661 17.1607,-76 11.3483,-33.94017 26.9547,-64.42344 48.6368,-95 4.0951,-5.775 9.5423,-13.11018 12.105,-16.30041 l 4.6594,-5.80041 -33.4384,-33.44959 c -18.3911,-18.39727 -33.7784,-33.44959 -34.194,-33.44959 l -0.7556,0 0,2.25 c -9e-4,1.2375 -1.3386,7.23767 -2.9728,13.33371 l -2.9712,11.08372 -4.4426,11.05405 c -6.5698,16.34843 -20.1802,42.62108 -41.5873,80.27852 -37.0639,65.1996 -52.4264,99.0105 -61.11216,134.5 l -2.93689,12 -1.48754,11.30122 -1.48754,11.30121 0,13.87643 0,13.87642 1.03847,7.82236 c 3.83171,28.86282 11.64316,53.96423 27.60526,88.70762 7.8132,17.00616 18.5957,37.18013 40.147,75.11474 9.0615,15.95 20.6478,37.1 25.7473,47 l 9.2719,18 4.5411,11.5 c 4.9646,12.57281 9.4089,27.09025 10.3318,33.75 0.324,2.3375 0.8679,4.25 1.2087,4.25 0.3408,0 15.6565,-15.04188 34.0349,-33.42641 z m 86.9346,-552.44801 c 10.4106,-8.28421 30.3595,-21.90854 42.4986,-29.02495 42.1795,-24.72729 91.2464,-40.92699 143.1404,-47.25853 l 11,-1.3421 29,0.012 29,0.012 13.5,1.81232 c 26.996,3.62412 49.1382,8.67483 73,16.6515 39.3748,13.16251 77.6859,34.04056 110,59.9457 l 7.5,6.01251 33.25,-33.21746 c 18.2875,-18.2696 33.25,-33.49631 33.25,-33.83713 0,-0.34082 -1.9125,-0.88472 -4.25,-1.20868 -6.6744,-0.92499 -21.1934,-5.37289 -33.75,-10.33931 l -11.5,-4.5485 -17,-8.70342 c -9.35,-4.7868 -30.95,-16.607599 -48,-26.26836 -40.4719,-22.93189 -58.1069,-32.365478 -75.0886,-40.167388 -34.7713,-15.974991 -59.8634,-23.784595 -88.7338,-27.617316 l -7.8223,-1.038465 -13.8765,0 -13.8764,0 -11.3012,1.48754 -11.3012,1.48754 -12,2.93689 c -35.4895,8.685728 -69.3004,24.048239 -134.5,61.112182 -37.6575,21.407077 -63.9301,35.017467 -80.2785,41.587787 l -11.0541,4.44254 -11.0837,2.97124 c -6.0961,1.63418 -12.0962,2.97192 -13.3337,2.97276 l -2.25,0.002 0,0.74448 c 0,0.728 66.1318,67.25552 66.8554,67.25552 0.2017,0 4.2542,-3.09349 9.0056,-6.87442 z"
         id="path3367"
         inkscape:connector-curvature="0" />
      <path
         style="fill:#050303"
         d="m 1436.9014,956.79577 c -9.8943,-1.01417 -25.085,-3.73455 -35.1768,-6.29952 -35.7652,-9.09022 -69.6982,-24.56797 -133.8232,-61.04046 -37.5886,-21.37928 -63.8441,-34.98293 -80.3623,-41.63772 l -11.1377,-4.48714 -11.5,-3.02592 -11.5,-3.02593 -13.8522,-0.54578 -13.8523,-0.54579 43.782,-43.79041 43.7819,-43.79042 -13.4297,-13.5025 -13.4297,-13.5025 -44.25,44.18225 -44.25,44.18224 0,-12.15782 0,-12.15781 -1.4496,-7.57629 c -0.7973,-4.16695 -3.221,-12.86904 -5.3861,-19.33796 -7.1626,-21.4008 -16.7341,-40.86566 -41.1882,-83.76169 -26.7114,-46.85574 -36.2897,-64.98992 -46.4809,-88 -11.15172,-25.17875 -17.4599,-44.33545 -21.89804,-66.5 l -2.50296,-12.5 -1.16657,-13 -1.16658,-13 0.66569,-11.5 c 1.28034,-22.11817 5.22811,-42.24945 12.7466,-65 5.90201,-17.85917 13.45306,-35.357 25.89246,-60 l 10.8528,-21.5 17.6685,-31 c 9.7177,-17.05 22.2941,-40 27.9476,-51 l 10.2791,-20 4.5765,-11.6736 c 2.517,-6.42048 5.7661,-16.09548 7.2201,-21.5 l 2.6436,-9.8264 0.4978,-15.37092 0.4979,-15.37093 43.7494,43.74099 43.7495,43.74099 13.2136,-13.27787 13.2137,-13.27787 -43.7089,-43.71736 -43.7089,-43.71735 15.371,-0.49783 15.3709,-0.49782 9.5791,-2.57938 c 5.2686,-1.41866 14.4936,-4.4697 20.5,-6.78009 l 10.9209,-4.2007 21,-10.696304 c 11.55,-5.88297 34.95,-18.657391 52,-28.387603 l 31,-17.691294 21.5,-10.852861 c 11.825,-5.969073 27.3649,-13.320246 34.5331,-16.335938 23.5693,-9.915659 47.6995,-16.9541123 69.756,-20.3468624 l 11.2109,-1.7244717 18,-0.028459 18,-0.028459 11.5,1.7702122 11.5,1.7702122 15,3.8430393 15,3.8430404 12,4.449368 c 30.5531,11.328522 54.4255,23.306678 113,56.698689 42.2608,24.091964 61.3424,33.513951 82.9903,40.978471 l 11.5071,3.96781 8.1117,1.53877 8.1118,1.53878 12.1353,0 12.1353,0 -43.6431,43.75 -43.6431,43.75 13.4983,13.39471 13.4984,13.39472 43.2554,-43.24689 43.2555,-43.24689 0.5701,13.85217 0.5701,13.85218 2.5552,10.23819 2.5551,10.23819 4.6354,11.76181 4.6354,11.76181 9.3453,18.5 c 5.1398,10.175 17.92,33.575 28.4003,52 21.3181,37.4783 35.9087,65.64359 44.8102,86.5 l 5.9751,14 5.0262,15.53672 5.0261,15.53672 2.5377,12.46328 c 1.3956,6.8548 3.0117,16.83304 3.5912,22.17387 l 1.0537,9.71058 0,12.4882 0,12.4882 -1.5419,11.76171 c -3.902,29.76624 -11.9597,55.74384 -28.1436,90.73291 -8.2869,17.91616 -19.8843,39.59323 -41.7881,78.10781 l -17.6302,31 -9.3715,19 -9.3714,19 -3.6924,10 c -2.0308,5.5 -4.8077,14.275 -6.171,19.5 l -2.4787,9.5 -0.547,14.35434 -0.5471,14.35434 -43.8583,-43.84985 -43.8584,-43.84985 -13.2457,13.24574 -13.2458,13.24574 43.8499,43.85834 43.8498,43.85835 -14.3543,0.54704 -14.3543,0.54704 -9.5,2.47869 c -5.225,1.36328 -14,4.13272 -19.5,6.15432 l -10,3.67563 -19,9.39318 -19,9.39319 -31,17.62214 c -39.2397,22.30601 -60.3091,33.58345 -78,41.7495 -35.2312,16.2626 -61.067,24.2773 -90.8408,28.18029 l -11.7617,1.54183 -14.1987,-0.16004 c -7.8094,-0.088 -15.7738,-0.32147 -17.6988,-0.51879 z m 33.5,-12.37596 12,-1.03415 12.1325,-2.43753 c 15.2275,-3.05933 31.9367,-8.10184 48.7869,-14.72291 l 13.0806,-5.13985 24.5,-12.2623 24.5,-12.2623 33.5,-19.1124 33.5,-19.1124 21,-10.36714 21,-10.36715 9.9229,-3.64467 c 5.4576,-2.00456 14.7951,-4.83567 20.75,-6.29135 5.9549,-1.45568 10.8271,-2.88419 10.8271,-3.17447 0,-0.29028 -15.0154,-15.53814 -33.3675,-33.88412 l -33.3675,-33.35634 -12.3825,9.48538 c -32.0553,24.55532 -65.6295,42.66479 -102.8825,55.49339 -34.5864,11.91031 -68.1165,18.13901 -106.5,19.78393 l -16,0.68568 -17,-1.16561 c -9.35,-0.64108 -21.95,-1.84765 -28,-2.68126 -26.1994,-3.60995 -54.8866,-10.95247 -80.0013,-20.47644 l -13.9987,-5.30857 -18.5,-9.24149 -18.5,-9.24148 -10.742,-6.80483 c -12.8641,-8.14915 -25.732,-17.20747 -35.2233,-24.79517 l -6.9652,-5.56831 -33.7588,33.74786 -33.7588,33.74785 10.724,2.67781 c 28.2839,7.06251 47.1315,15.99367 112.7241,53.41582 14.3,8.15849 36.8,20.29048 50,26.95996 l 24,12.12634 15.5,6.11053 c 26.1382,10.30442 50.2068,16.41525 71.5914,18.17652 14.3765,1.18409 17.5968,1.18838 30.9086,0.0412 z m 29.5,-118.38636 c 30.8167,-4.26653 56.8309,-10.89722 83.5,-21.28315 15.751,-6.13401 51.3534,-23.75564 50.2416,-24.8674 -0.2235,-0.22347 -7.1193,0.28813 -15.324,1.1369 -8.2047,0.84876 -32.6319,3.00369 -54.2828,4.78872 l -39.3651,3.24551 -12.1349,-1.75768 -12.1348,-1.75769 -13.25,-0.68625 -13.25,-0.68625 0,0.60414 c 0,0.33228 1.5738,3.21418 3.4974,6.40422 1.9236,3.19004 3.4986,6.11643 3.5,6.50308 0,1.13407 -5.9179,2.54827 -34.4974,8.23805 -14.85,2.95643 -31.725,6.56383 -37.5,8.01646 -10.9423,2.7524 -22,6.5929 -22,7.64093 0,0.74637 17.1101,3.54052 30,4.89911 5.225,0.55072 11.075,1.18288 13,1.40481 1.925,0.22192 15.875,0.25616 31,0.0761 l 27.5,-0.32746 11.5,-1.59215 z m -168.2093,-33.57262 17.7093,-5.01377 53.9921,-5.89184 53.9921,-5.89184 1.5079,0.77807 1.5079,0.77808 61,-7.83539 c 33.55,-4.30947 69.1,-8.57397 79,-9.47668 9.9,-0.9027 18.9,-1.98073 20,-2.39562 l 2,-0.75435 -11,-5.49922 c -6.05,-3.02457 -14.6,-6.91321 -19,-8.64142 l -8,-3.1422 -43.1369,5.79037 -43.1368,5.79037 -24.3632,-8.36158 -24.3631,-8.36158 -22,0.82118 -22,0.82119 -69.6152,-0.27621 -69.6153,-0.27621 1.8773,-9.1525 c 1.0325,-5.03388 2.0875,-9.3627 2.3444,-9.6196 0.2569,-0.25691 40.864,-2.6159 90.2379,-5.24221 49.374,-2.62631 93.6367,-5.04645 98.3617,-5.3781 l 8.5908,-0.603 2.3134,11.02392 2.3133,11.02391 1.0958,-2e-4 c 0.6027,-1.1e-4 9.8709,-0.65834 20.5959,-1.46273 29.885,-2.24143 56.3593,-4.756 57.7771,-5.48777 l 1.2771,-0.65916 -19.5271,-9.35165 -19.5271,-9.35165 0,-2.90244 0,-2.90243 0.75,0.44041 c 0.4125,0.24223 12.7286,5.66878 27.3691,12.05902 l 26.6191,11.6186 4.3809,0.0741 c 2.4095,0.0408 6.3779,0.37827 8.8187,0.75 l 4.4377,0.67588 1.7211,6.8255 c 0.9466,3.75402 1.8746,6.95799 2.0622,7.11992 0.1876,0.16194 10.9162,5.38545 23.8412,11.6078 12.925,6.22236 23.6528,11.42125 23.8397,11.5531 0.1868,0.13185 0.8129,3.76186 1.3914,8.0667 0.5784,4.30484 1.377,8.19348 1.7747,8.64143 l 0.7231,0.81445 10.4497,-7.05159 c 5.7473,-3.87837 16.4953,-11.89488 23.8843,-17.81445 l 13.4347,-10.76284 13.0439,-13 c 20.3801,-20.31146 35.551,-39.27276 50.8063,-63.5 l 7.8709,-12.5 9.3111,-19 9.3111,-19 4.9444,-13.5 c 9.0067,-24.59179 15.1962,-49.97914 18.8945,-77.5 l 1.747,-13 0.011,-31 0.011,-31 -1.7533,-12.39063 c -2.7327,-19.31173 -6.4543,-37.14305 -11.211,-53.71632 l -4.3655,-15.21008 -5.6804,-14.34148 c -13.7016,-34.59303 -32.7166,-67.00036 -56.1677,-95.72695 l -8.6653,-10.61454 -14.553,-14.52316 -14.553,-14.52315 -12.9705,-10.38691 c -39.4178,-31.56634 -84.6238,-54.29715 -132.0295,-66.38812 -15.4398,-3.93797 -25.4408,-5.90019 -42,-8.24048 l -11,-1.55463 -26.1313,-0.57325 -26.1313,-0.57326 -13.3687,1.21261 c -53.9023,4.88922 -105.7335,21.97401 -151.3687,49.89477 -11.8579,7.25491 -26.5237,17.63229 -38.9405,27.55383 l -10.0595,8.03794 -16.0319,16.0319 -16.0319,16.03191 -8.0018,10.01446 c -20.9829,26.26093 -36.5268,51.66852 -49.2396,80.48554 -13.7606,31.19237 -22.1284,61.74426 -27.3886,100 l -1.3062,9.5 0,31.5 0,31.5 0.7795,4.53815 0.7795,4.53815 12.7205,1.80196 c 15.6544,2.21756 33.6172,5.71029 50.6222,9.84307 l 12.9016,3.13554 2.5984,2.37789 2.5983,2.37789 -2,-0.51738 c -24.854,-6.42943 -43.3788,-10.34255 -64.1832,-13.55783 -7.2508,-1.12059 -13.5901,-2.03744 -14.0874,-2.03744 l -0.9042,0 1.2733,8.61174 c 0.7003,4.73645 1.513,9.23645 1.806,10 l 0.5327,1.38826 3.2814,0.0188 c 6.9404,0.0397 33.6686,4.04955 67.0964,10.06588 l 34.815,6.26601 1.435,2.77499 c 0.7892,1.52625 1.435,3.18014 1.435,3.67532 l 0,0.90031 -5.1614,-0.81591 c -25.6819,-4.05975 -99.6484,-12.40896 -100.6915,-11.36587 -1.2094,1.2094 12.582,47.38065 15.2193,50.95145 l 1.1336,1.53489 28.5,-0.9842 c 15.675,-0.54132 43.1062,-0.99264 60.9582,-1.00294 l 32.4582,-0.0187 -4.4582,-4.60077 -4.4582,-4.60077 4,0.60426 c 2.2,0.33235 19.75,2.63987 39,5.12783 38.9924,5.03957 72.7482,10.4446 81.75,13.08995 l 1.75,0.51428 0,1.93261 c 0,1.06293 -0.1948,1.93261 -0.4328,1.93261 -0.238,0 -10.9255,-1.33653 -23.75,-2.97007 -12.8245,-1.63353 -30.1948,-3.67564 -38.6007,-4.53801 -16.0483,-1.64644 -49.4344,-3.60741 -50.0991,-2.94265 -0.2136,0.21357 0.358,1.52736 1.2702,2.91952 l 1.6585,2.53121 -0.9946,0 c -0.547,0 -11.606,1.81126 -24.5756,4.02501 l -23.5811,4.02502 -24.6974,-1.08784 -24.6974,-1.08785 -13.1823,0.31283 -13.1822,0.31283 7.2821,14.5 c 4.0052,7.975 9.7441,18.55 12.7533,23.5 l 5.471,9 8.9291,0.66623 c 9.5438,0.7121 95.4926,2.8523 114.0812,2.84072 l 11.1522,-0.007 2.6913,11.57314 c 1.4802,6.36523 2.5146,11.7499 2.2985,11.96592 -0.216,0.21603 -8.6956,-0.0643 -18.8435,-0.62305 l -18.4507,-1.01578 -45,-6.45553 c -24.75,-3.55055 -45.8017,-6.45309 -46.7816,-6.4501 l -1.7815,0.005 4.2088,5.75 c 20.0564,27.40027 45.3676,52.83129 73.6538,74.00237 16.3513,12.23823 29.5841,20.50423 48.7005,30.42114 l 15,7.78149 1.7907,0.0225 c 0.9849,0.0124 9.7599,-2.2337 19.5,-4.99127 z m 70.794,-108.81048 -26.9154,-9.67575 3.4154,-0.21263 c 1.8784,-0.11695 19.1653,-0.68318 38.4153,-1.25829 19.25,-0.5751 43.3787,-1.33492 53.6193,-1.68848 l 18.6192,-0.64284 2.7523,4.69629 c 1.5137,2.58296 2.5563,4.89217 2.3169,5.13156 -0.7532,0.75321 -60.5802,13.4781 -63.0016,13.40014 -1.2684,-0.0408 -14.418,-4.42834 -29.2214,-9.75 z m -44.5847,-14.29232 -12.5,-2.87965 -27.1865,0.61018 -27.1865,0.61019 -17.8135,-5.27499 c -9.7974,-2.90125 -18.1682,-5.57885 -18.6017,-5.95022 l -0.7881,-0.67522 28.7008,-0.66186 c 15.7855,-0.36402 38.9513,-0.66186 51.4795,-0.66186 l 22.7787,0 3.2622,6.12052 3.2622,6.12053 3.7964,2.51236 c 2.0881,1.3818 3.7965,2.67756 3.7965,2.87948 0,0.20191 -0.1125,0.3138 -0.25,0.24865 -0.1375,-0.0652 -5.875,-1.4143 -12.75,-2.99811 z m 84.5,-12.97745 c -18.7,-2.12587 -55.375,-6.34627 -81.5,-9.37865 l -47.5,-5.51343 -19,-6.49547 -19,-6.49546 8,0.51596 c 18.9222,1.2204 69.4304,5.65098 86,7.54392 9.9,1.131 27.8921,3.34544 39.9824,4.92097 12.0904,1.57554 22.118,2.72911 22.2836,2.56349 0.1656,-0.16562 -3.4796,-1.9253 -8.1005,-3.91041 -4.6208,-1.9851 -13.1859,-5.93543 -19.0335,-8.7785 l -10.632,-5.16922 0,-1.85459 c 0,-1.02002 0.2383,-1.85459 0.5296,-1.85459 0.2913,0 14.7863,5.69303 32.2111,12.65117 l 31.6816,12.65118 8.0388,1.39146 8.0389,1.39147 1.2835,1.27661 1.2836,1.27662 0.5973,3.68074 0.5973,3.68075 -0.8809,-0.11439 c -0.4844,-0.0629 -16.1808,-1.85375 -34.8808,-3.97963 z m -120,-62.99727 c -17.033,-3.45038 -43.4375,-7.50762 -64.5,-9.9109 l -9.5,-1.08396 -1.7485,-1.73321 -1.7485,-1.73321 4.2485,0.31802 c 23.6607,1.7711 59.4804,6.80346 80.473,11.30574 l 10.2245,2.19285 0.6168,1.94334 c 0.3392,1.06884 0.4632,2.0343 0.2755,2.14547 -0.1877,0.11118 -8.4413,-1.43869 -18.3413,-3.44414 z m 484.4184,165.0909 c 6.2137,-20.57512 19.697,-47.95833 48.5004,-98.49961 l 17.6668,-31 12.2626,-24.5 12.2625,-24.5 5.1399,-13.08059 c 6.6153,-16.83557 11.6599,-33.54663 14.7273,-48.78687 l 2.4419,-12.13254 1.1036,-13.16827 1.1036,-13.16827 -1.0924,-13.6807 -1.0924,-13.68071 -2.0261,-10.49893 c -3.817,-19.77926 -11.5553,-43.0956 -22.3368,-67.30312 -6.9305,-15.56106 -21.4458,-43.1758 -38.1085,-72.5 -37.7898,-66.50524 -46.3096,-84.50494 -53.356,-112.7241 l -2.6778,-10.72411 -33.3893,33.40051 -33.3894,33.40052 1.4208,1.95061 c 0.7815,1.07284 4.9122,6.48933 9.1794,12.03664 8.7736,11.40547 19.8826,28.24685 27.6067,41.85177 14.97,26.36782 27.8131,59.0969 35.6649,90.88796 l 3.4775,14.07981 2.4523,15.92019 c 6.8753,44.63334 5.9179,85.626 -3.0294,129.71835 -3.2087,15.81231 -6.6702,28.29825 -12.6701,45.70185 -12.858,37.29695 -30.9503,70.83603 -55.499,102.88256 l -9.4854,12.38255 33.8532,33.86416 33.8532,33.86416 1.5855,-7.2471 c 0.8721,-3.98591 2.6048,-10.62193 3.8505,-14.74672 z m -662.992,-12.42602 33.4152,-33.42641 -1.4208,-1.96582 c -0.7814,-1.0812 -5.3758,-7.165 -10.2097,-13.51956 -4.8339,-6.35456 -12.6138,-17.54055 -17.2886,-24.85777 l -8.4997,-13.30403 -9.3974,-19 -9.3975,-19 -4.9994,-13.5 c -9.9467,-26.8587 -17.0254,-55.25308 -20.8167,-83.5 l -1.7448,-13 -0.034,-31 -0.034,-31 1.3261,-10.5 c 3.401,-26.9297 8.9076,-51.31661 17.1607,-76 11.3483,-33.94017 26.9547,-64.42344 48.6368,-95 4.0951,-5.775 9.5423,-13.11018 12.105,-16.30041 l 4.6594,-5.80041 -33.4384,-33.44959 c -18.3911,-18.39727 -33.7784,-33.44959 -34.194,-33.44959 l -0.7556,0 0,2.25 c -9e-4,1.2375 -1.3386,7.23767 -2.9728,13.33371 l -2.9712,11.08372 -4.4426,11.05405 c -6.5698,16.34843 -20.1802,42.62108 -41.5873,80.27852 -37.0639,65.1996 -52.4264,99.0105 -61.11216,134.5 l -2.93689,12 -1.48754,11.30122 -1.48754,11.30121 0,13.87643 0,13.87642 1.03847,7.82236 c 3.83171,28.86282 11.64316,53.96423 27.60526,88.70762 7.8132,17.00616 18.5957,37.18013 40.147,75.11474 9.0615,15.95 20.6478,37.1 25.7473,47 l 9.2719,18 4.5411,11.5 c 4.9646,12.57281 9.4089,27.09025 10.3318,33.75 0.324,2.3375 0.8679,4.25 1.2087,4.25 0.3408,0 15.6565,-15.04188 34.0349,-33.42641 z m 86.9346,-552.44801 c 10.4106,-8.28421 30.3595,-21.90854 42.4986,-29.02495 42.1795,-24.72729 91.2464,-40.92699 143.1404,-47.25853 l 11,-1.3421 29,0.012 29,0.012 13.5,1.81232 c 26.996,3.62412 49.1382,8.67483 73,16.6515 39.3748,13.16251 77.6859,34.04056 110,59.9457 l 7.5,6.01251 33.25,-33.21746 c 18.2875,-18.2696 33.25,-33.49631 33.25,-33.83713 0,-0.34082 -1.9125,-0.88472 -4.25,-1.20868 -6.6744,-0.92499 -21.1934,-5.37289 -33.75,-10.33931 l -11.5,-4.5485 -17,-8.70342 c -9.35,-4.7868 -30.95,-16.607599 -48,-26.26836 -40.4719,-22.93189 -58.1069,-32.365478 -75.0886,-40.167388 -34.7713,-15.974991 -59.8634,-23.784595 -88.7338,-27.617316 l -7.8223,-1.038465 -13.8765,0 -13.8764,0 -11.3012,1.48754 -11.3012,1.48754 -12,2.93689 c -35.4895,8.685728 -69.3004,24.048239 -134.5,61.112182 -37.6575,21.407077 -63.9301,35.017467 -80.2785,41.587787 l -11.0541,4.44254 -11.0837,2.97124 c -6.0961,1.63418 -12.0962,2.97192 -13.3337,2.97276 l -2.25,0.002 0,0.74448 c 0,0.728 66.1318,67.25552 66.8554,67.25552 0.2017,0 4.2542,-3.09349 9.0056,-6.87442 z"
         id="path3365"
         inkscape:connector-curvature="0" />
    </g>
  </g>
</svg>
